<svg width="40" height="42" viewBox="0 0 40 42" fill="none" xmlns="http://www.w3.org/2000/svg">
<g clip-path="url(#clip0)">
<path d="M32.5 28.5473C32.5 28.5473 35.9238 28.6466 36.6086 29.2423C36.9832 29.5682 37.1529 30.6369 37.2297 31.5382C37.2934 32.2846 38.3655 32.6003 38.3655 32.6003" stroke="black" stroke-width="2.6307"/>
<path d="M33.3834 25.4692C33.3834 25.4692 35.4377 25.3699 36.2203 25.8664C36.7291 26.1892 37.4447 27.4775 37.8831 28.3393C38.119 28.8029 39.243 28.7921 39.243 28.7921" stroke="black" stroke-width="2.6307"/>
<path d="M19.9729 20.9261L5.85964 26.4553C5.85964 26.4553 4.33396 26.8802 3.87579 26.6066C3.41759 26.3331 1.34479 23.1666 0.98731 22.0629C0.629834 20.9592 0.884227 17.1256 1.30503 16.5501C1.72583 15.9745 12.2749 15.2339 14.4074 15.5953C16.5397 15.9566 19.1691 17.2825 20.0081 17.8893" fill="#FFF1F1"/>
<path d="M23.9931 15.798C23.9931 15.798 27.4952 13.3119 28.0338 12.5725C28.5724 11.833 33.5319 3.5094 33.291 2.9384C33.05 2.36755 29.5894 0.860887 28.7542 0.817191C27.919 0.773539 21.8714 3.1705 21.5 3.5C19.8094 4.99999 21.9091 14.9123 21.5 15.798" fill="#FFF1F1"/>
<path d="M18.419 16.8078C15.9363 18.1513 13.1669 21.4035 12.8222 25.6017C12.4001 30.7435 19.5492 35.4513 24.0777 35.0975C26.1718 34.934 28.1671 34.0975 29.7955 32.7778C29.6834 32.8414 29.5562 30.8908 29.4617 30.9426C29.211 31.0801 28.9538 31.2047 28.6919 31.3157C28.43 31.4268 28.1631 31.5242 27.892 31.6074C27.6209 31.6907 27.3457 31.7599 27.0673 31.8139C26.789 31.8679 26.5069 31.9061 26.2232 31.9294C25.9891 31.9487 25.7466 31.9512 25.4977 31.937C25.2487 31.9228 24.9929 31.8919 24.7332 31.8461C24.4735 31.8003 24.2103 31.7396 23.9439 31.6643C23.6775 31.5889 23.4076 31.5001 23.1388 31.3972C22.8699 31.2943 22.6009 31.1772 22.3336 31.0487C22.0663 30.9201 21.8007 30.7785 21.5391 30.6263C21.2775 30.4741 21.0211 30.3115 20.7693 30.1376C20.5175 29.9638 20.271 29.78 20.0331 29.5865C19.7952 29.3929 19.5663 29.1898 19.3465 28.9785C19.1267 28.7671 18.9159 28.5464 18.7183 28.3193C18.5206 28.0922 18.3357 27.8575 18.1644 27.6166C17.993 27.3758 17.8364 27.1287 17.6954 26.876C17.5545 26.6234 17.4285 26.3658 17.322 26.1033C17.2688 25.972 17.2207 25.8389 17.1769 25.7055C17.1331 25.5722 17.094 25.4392 17.0601 25.304C17.0262 25.1688 16.9969 25.0317 16.9734 24.8949C16.9499 24.7581 16.9328 24.6201 16.9203 24.482C16.9078 24.3438 16.9001 24.2064 16.8991 24.0672C16.898 23.9279 16.9023 23.7868 16.9132 23.6467C16.9351 23.3664 16.9693 23.0924 17.0141 22.8228C17.059 22.5531 17.1147 22.2876 17.1805 22.0292C17.2463 21.7707 17.3223 21.5181 17.407 21.2715C17.4916 21.025 17.5852 20.7858 17.6866 20.5518C17.7879 20.3178 17.898 20.0888 18.014 19.8681C18.1299 19.6473 18.2517 19.4348 18.3803 19.2279C18.5088 19.021 18.643 18.8198 18.782 18.6274C18.9209 18.4351 19.0647 18.2515 19.212 18.0744C19.3593 17.8973 19.5097 17.728 19.6632 17.5668C19.8167 17.4056 19.9728 17.2511 20.1304 17.1065C20.2127 17.031 18.3187 16.889 18.419 16.8078Z" fill="#295F9A"/>
<path d="M18.46 16.6897C18.3598 16.7709 18.2577 16.8464 18.1583 16.9329C17.9677 17.0988 17.8034 17.4497 17.6178 17.6345C17.4322 17.8194 17.2502 18.0136 17.0721 18.2166C16.8941 18.4197 16.7202 18.6303 16.5522 18.8509C16.3841 19.0714 16.2218 19.3022 16.0664 19.5394C15.911 19.7767 15.7637 20.0204 15.6234 20.2735C15.4832 20.5267 15.3501 20.7893 15.2276 21.0576C15.105 21.326 14.9918 21.6002 14.8895 21.883C14.7871 22.1658 14.6951 22.4554 14.6155 22.7518C14.536 23.0482 14.4686 23.3526 14.4144 23.6619C14.3602 23.9712 14.3188 24.2854 14.2924 24.6068C14.2792 24.7675 14.274 24.9293 14.2753 25.089C14.2766 25.2487 14.2858 25.4062 14.301 25.5647C14.3161 25.7231 14.3368 25.8813 14.3652 26.0382C14.3936 26.1951 14.429 26.3523 14.47 26.5073C14.511 26.6624 14.5583 26.8149 14.6113 26.9678C14.6642 27.1207 14.7224 27.2734 14.7867 27.4239C14.9154 27.725 15.0678 28.0204 15.2383 28.3101C15.4087 28.5999 15.5981 28.8832 15.8053 29.1594C16.0125 29.4356 16.2361 29.7048 16.4751 29.9653C16.7141 30.2257 16.969 30.4788 17.2348 30.7211C17.5006 30.9635 17.7775 31.1964 18.0651 31.4184C18.3527 31.6404 18.6508 31.851 18.9553 32.0504C19.2597 32.2498 19.5698 32.4363 19.8861 32.6108C20.2025 32.7854 20.5237 32.9478 20.8469 33.0952C21.1702 33.2426 21.4954 33.3768 21.8206 33.4948C22.1458 33.6129 22.4722 33.7147 22.7943 33.8011C23.1164 33.8875 23.4346 33.9571 23.7486 34.0096C24.0627 34.0621 24.372 34.0975 24.6731 34.1139C24.9741 34.1302 25.2674 34.1273 25.5505 34.1052C25.8935 34.0784 26.2346 34.0346 26.5712 33.9727C26.9078 33.9108 27.2405 33.8314 27.5683 33.7359C27.8961 33.6405 28.2189 33.5288 28.5356 33.4014C28.8522 33.2741 29.1633 33.1312 29.4664 32.9736C29.5808 32.9141 29.6881 32.8417 29.8003 32.7781C32.4393 30.6392 34.1122 27.2262 33.6521 23.3142C33.0309 18.0329 26.2395 13.9282 20.0478 16.0703C19.5572 16.1752 19.0179 16.3874 18.46 16.6894L18.46 16.6897Z" fill="#5A7997"/>
<path d="M29.5464 16.9253C33.5462 16.5998 34.9823 18.3663 35.2877 20.9625C36.25 23.94 32.3133 26.6847 29.6156 26.8953C27.3893 27.0692 24.8428 24.6135 25.0503 22.0859C25.2578 19.5583 27.5 17.22 29.5464 16.9253Z" fill="#D9DEE6"/>
<path d="M30.3805 16.8018C30.1319 16.806 29.8741 16.8181 29.6042 16.838C28.653 16.9084 26.9517 18.007 25.8333 19.4555C25.985 19.2893 26.1333 19.1194 26.2954 18.9674C26.5467 18.7317 26.8083 18.5133 27.0695 18.3194C27.3307 18.1254 27.5908 17.9551 27.8436 17.8121C28.0963 17.6691 28.3409 17.5539 28.5668 17.4711C28.6797 17.4297 28.7875 17.3976 28.8903 17.373C28.993 17.3484 29.091 17.3307 29.1814 17.324C29.4513 17.304 29.7114 17.2941 29.96 17.2899C30.2087 17.2857 30.4458 17.2875 30.674 17.2984C30.9022 17.3093 31.1218 17.3284 31.3302 17.3538C31.5387 17.3793 31.7369 17.4125 31.9263 17.4519C32.1158 17.4912 32.2958 17.5356 32.467 17.5883C32.6383 17.641 32.8008 17.702 32.9545 17.7673C33.1083 17.8327 33.2519 17.903 33.3889 17.9805C33.526 18.058 33.656 18.1409 33.7771 18.2299C33.8982 18.3189 34.0109 18.4135 34.1168 18.5134C34.2227 18.6132 34.3211 18.7186 34.4125 18.8288C34.504 18.939 34.5889 19.0542 34.6667 19.1741C34.7444 19.294 34.8145 19.4182 34.8793 19.5471C34.9441 19.6761 35.0045 19.8104 35.0572 19.9478C35.1098 20.0853 35.1546 20.2267 35.1958 20.372C35.2782 20.6626 35.3394 20.968 35.3807 21.2864C35.4053 21.4771 35.4138 21.6669 35.4084 21.8534C35.4029 22.0398 35.3839 22.2242 35.3506 22.4054C35.3174 22.5867 35.2708 22.7652 35.212 22.9404C35.1532 23.1156 35.0814 23.2859 34.9994 23.4541C34.9174 23.6223 34.8251 23.7884 34.7221 23.9486C34.6315 24.0896 34.5315 24.2258 34.4264 24.36C35.3871 23.3697 35.9757 22.1314 35.8035 20.8004C35.4944 18.412 34.1107 16.7383 30.3805 16.8017L30.3805 16.8018Z" fill="white"/>
<path d="M30.2284 38.64L29.1914 34.7088L28.4012 32.2896L25.8333 28.8624L28.5 28.56L29.784 32.088L31.3642 34.8599L32.0555 35.9688L32.5 37.4807" fill="#5A7997"/>
<path d="M25 28.56L28.2721 32.3607L29.1182 34.754L30.2257 38.64L30.8333 38.3532L29.8043 34.754L28.9615 32.3607L25.752 28.8467L25 28.56Z" fill="#295F9A"/>
<path d="M28.4904 28.56L28.3333 28.7269L29.4798 32.3563L31.0634 35.1781L31.7587 36.3049L32.1906 37.8L32.5 37.6413L32.0558 36.1018L31.3605 34.9718L29.7769 32.15L28.4904 28.56Z" fill="#5A7997"/>
<path d="M30.0007 38.64C30.0007 38.64 31.5237 38.0725 32.0515 38.0397C32.5793 38.0069 33.3333 37.96 33.3333 37.96C33.3333 37.96 32.5586 35.7033 31.2445 36.1883C29.9305 36.6733 30.0007 38.64 30.0007 38.64V38.64Z" fill="black" stroke="black" stroke-width="0.52614"/>
<path d="M22.3221 33.3134C22.3221 33.3134 19.2896 36.6894 19.3874 37.6823C19.4443 38.2595 20.3937 39.273 21.1788 40.0204C21.7442 40.5587 20.8755 41.9069 20.8755 41.9069" stroke="black" stroke-width="2.6307"/>
<path d="M18.6038 31.2282C18.6038 31.2282 16.0604 31.9233 15.6691 33.1148C15.4514 33.7778 15.8475 35.6569 15.536 36.8509C15.2876 37.8029 14.2996 38.1788 14.2996 38.1788" stroke="black" stroke-width="2.6307"/>
<path d="M16.5495 27.9515C15.3756 28.2494 13.2236 28.3487 12.6366 29.441C12.2979 30.0713 11.9302 31.7552 11.1532 32.651C10.5837 33.3076 9.50616 33.3134 9.50616 33.3134" stroke="black" stroke-width="2.6307"/>
<path d="M21.8907 18.305C24.9343 17.2518 28.2605 19.1843 28.5658 21.7805C28.9315 24.8899 26.5599 27.3623 23.8622 27.5729C21.6358 27.7468 18.1209 25.4315 18.3284 22.9039C18.75 19.74 20.5764 18.5859 21.8907 18.305Z" fill="#D9DEE6"/>
<path d="M23.5498 17.6401C23.0049 17.643 22.4483 17.7347 21.9015 17.9343C21.0515 18.1259 19.8966 19.0244 19.1667 20.3664C19.252 20.2468 19.3319 20.1181 19.4229 20.0086C19.5907 19.8068 19.7662 19.6246 19.9457 19.4599C20.1252 19.2951 20.3093 19.1478 20.491 19.023C20.6727 18.8983 20.8538 18.7951 21.0281 18.7135C21.2025 18.6319 21.3689 18.5734 21.5263 18.5379C21.7086 18.4714 21.8922 18.4168 22.0757 18.3733C22.2593 18.3298 22.4438 18.2962 22.6272 18.2745C22.8106 18.2528 22.993 18.2425 23.1746 18.2416C23.3562 18.2406 23.5375 18.2493 23.7158 18.2679C23.8942 18.2865 24.0692 18.3143 24.2427 18.3513C24.4162 18.3884 24.5881 18.4353 24.7552 18.4896C24.9223 18.5439 25.086 18.6058 25.2452 18.6762C25.4044 18.7466 25.5588 18.8257 25.7085 18.9111C25.8582 18.9965 26.0024 19.0884 26.1411 19.1877C26.2798 19.2869 26.4127 19.3918 26.5388 19.5038C26.6649 19.6157 26.7856 19.7337 26.8976 19.8572C27.0096 19.9806 27.1128 20.1096 27.2092 20.2435C27.3056 20.3774 27.3945 20.5175 27.4737 20.6606C27.5528 20.8037 27.6224 20.9506 27.6828 21.1018C27.7432 21.253 27.7944 21.409 27.8345 21.5671C27.8746 21.7253 27.9043 21.8861 27.9226 22.05C27.9445 22.2464 27.9555 22.4408 27.9575 22.6317C27.9595 22.8227 27.9518 23.0089 27.9349 23.1937C27.9181 23.3784 27.8915 23.5604 27.857 23.7381C27.8225 23.9158 27.7809 24.0906 27.7299 24.2605C27.6789 24.4304 27.6201 24.5953 27.5536 24.7566C27.4909 24.9088 27.42 25.0562 27.3445 25.2C28.0633 24.1883 28.4584 22.8867 28.2978 21.4464C28.0601 19.3146 25.911 17.6276 23.5497 17.6401L23.5498 17.6401Z" fill="white"/>
<path d="M32.1074 18.7915C31.405 18.7915 31.0809 19.6668 31.0809 20.3796C31.0809 21.0925 31.3562 21.7464 32.0585 21.7464C32.7609 21.7464 33.4274 21.018 33.4274 20.3051C33.4274 19.5922 32.8098 18.7915 32.1074 18.7915V18.7915Z" fill="black"/>
<path d="M25.6775 21.6957C24.9751 21.6957 24.2107 22.4716 24.2107 23.1845C24.2107 23.8974 24.6816 24.6258 25.384 24.6258C26.0863 24.6258 26.7529 23.8974 26.7529 23.1845C26.7529 22.4716 26.3798 21.6957 25.6775 21.6957Z" fill="black"/>
<path d="M29.9999 39.48C29.9999 39.48 29.4248 37.8394 29.1139 36.5299C29.0157 36.1663 28.9354 35.8305 28.8953 35.563C28.858 35.3141 28.787 34.7453 28.598 34.1713C28.5731 34.0958 28.5445 34.0189 28.5125 33.9402C28.3978 33.659 28.243 33.3531 28.0587 33.0148C27.8745 32.6764 27.663 32.3061 27.4081 31.9057C27.3385 31.7956 27.2682 31.6807 27.1974 31.5607C26.5376 30.4416 26.039 29.6089 25.6865 29.0181C25.4591 28.6368 25.2923 28.3567 25.1798 28.1671C25.119 28.0646 25.0741 27.9887 25.044 27.9376C25.0283 27.911 25.0166 27.8913 25.0088 27.878C25.0049 27.8712 25.0019 27.8662 25 27.8628V27.8628V27.8628C25.1061 27.7708 25.1605 27.7237 25.1645 27.7202V27.7202V27.7202V27.72C25.1645 27.72 25.1644 27.7201 25.1645 27.7202V27.7202V27.7202C25.1605 27.7237 25.1058 27.7711 25.0011 27.8619V27.8619C25.0011 27.8619 25.001 27.8619 25.001 27.8619V27.8619C25.0037 27.8648 25.0077 27.869 25.0129 27.8747C25.0233 27.8859 25.0386 27.9026 25.0592 27.9253C25.0986 27.9688 25.1569 28.0338 25.2348 28.1227C25.3787 28.2871 25.5893 28.5326 25.8692 28.8729C26.3032 29.4005 26.9049 30.1552 27.677 31.195C27.7598 31.3064 27.8368 31.4169 27.9086 31.526C28.0516 31.7447 28.1644 31.9644 28.2568 32.1772C28.3491 32.39 28.4211 32.5959 28.4816 32.7913C28.6026 33.182 28.6793 33.5298 28.7718 33.8239C28.7987 33.909 28.8267 33.9899 28.857 34.0663C28.9704 34.3526 29.1143 34.6105 29.2402 34.8282C29.3661 35.0458 29.474 35.2226 29.5143 35.341C29.601 35.5957 29.6791 35.9432 29.7439 36.328C29.9293 37.6765 30 39.48 30 39.48L29.9999 39.48Z" fill="black"/>
<path d="M28.3334 27.72C28.3334 27.72 28.9158 28.8362 29.3315 29.8583C29.5039 30.268 29.6517 30.66 29.7236 30.9587C29.7589 31.1049 29.8174 31.3802 29.9183 31.6953V31.6953C29.9647 31.8396 30.0187 31.9919 30.0831 32.1428C30.1996 32.4155 30.3813 32.7059 30.6176 33.0176C30.8874 33.3782 31.198 33.8049 31.507 34.3543C32.8337 36.713 33.3322 37.6859 33.3333 37.688C33.3333 37.688 33.3333 37.6881 33.3333 37.6881C33.2168 37.7627 33.1585 37.8 33.1585 37.8C33.1585 37.8 33.2168 37.7627 33.3333 37.6881L33.3333 37.688C33.3317 37.6862 32.6085 36.8551 31.0193 34.6665C30.6499 34.1578 30.4222 33.6771 30.2399 33.2595C30.0676 32.8678 29.9717 32.5263 29.8352 32.2585C29.7604 32.1114 29.6747 31.9754 29.5886 31.8527V31.8527C29.3943 31.5757 29.1995 31.3594 29.1361 31.2244C29.0075 30.9508 28.8821 30.5401 28.7725 30.0965C28.5173 29.0081 28.3333 27.7201 28.3333 27.7201L28.3334 27.72Z" fill="black"/>
<path d="M26.3691 21.9349C26.1386 21.9349 26.0114 22.4246 26.0114 22.6585C26.0114 22.8924 26.1659 23.1314 26.3963 23.1314C26.6268 23.1314 26.8455 22.8924 26.8455 22.6585C26.8455 22.4246 26.5995 21.9349 26.3691 21.9349Z" fill="white"/>
<path d="M33.1003 19.3747C32.8334 19.3747 32.7701 19.8018 32.7701 20.0727C32.7701 20.3437 32.9945 20.5584 33.2614 20.5584C33.5283 20.5584 33.6019 20.2208 33.6019 19.9499C33.6019 19.679 33.3672 19.3747 33.1003 19.3747V19.3747Z" fill="white"/>
</g>
<defs>
<clipPath id="clip0">
<rect width="40" height="42" fill="white"/>
</clipPath>
</defs>
</svg>
