<svg width="194" height="238" viewBox="0 0 194 238" fill="none" xmlns="http://www.w3.org/2000/svg">
<mask id="mask0" mask-type="alpha" maskUnits="userSpaceOnUse" x="0" y="0" width="194" height="238">
<rect width="194" height="238" fill="#C4C4C4"/>
</mask>
<g mask="url(#mask0)">
<g filter="url(#filter0_f)">
<g clip-path="url(#clip0)">
<path fill-rule="evenodd" clip-rule="evenodd" d="M96.3498 226.684C118.889 226.684 138.177 229.674 154.212 235.649C170.163 241.737 178.137 248.992 178.137 257.429C178.137 265.86 170.163 273.065 154.212 279.046C138.177 285.023 118.889 288.01 96.3498 288.01C73.811 288.01 54.5696 285.02 38.618 279.046C22.6689 273.065 14.693 265.863 14.693 257.429C14.693 248.995 22.6689 241.737 38.618 235.649C54.567 229.647 73.811 226.66 96.3498 226.66V226.684Z" fill="url(#paint0_radial)"/>
<path fill-rule="evenodd" clip-rule="evenodd" d="M149.141 40.6324C156.162 36.7905 161.233 32.9455 164.356 29.1035C163.836 32.9455 163.402 38.4445 163.056 45.5945C162.45 59.8977 162.536 75.1636 163.316 91.3862C164.617 117.431 166.523 170.536 169.037 250.699C166.523 257.318 161.8 263.829 154.865 270.235C141.082 283.15 123.226 289.232 101.293 288.485C75.634 287.739 55.264 282.989 40.1809 274.238C35.4999 271.461 31.6407 268.47 28.6085 265.27L25.3578 261.265C26.6581 258.494 27.8283 255.182 28.8685 251.34C30.949 243.654 31.4249 237.358 30.2988 232.446C29.5187 229.033 29.953 211.153 31.5991 178.807C33.2452 145.824 33.3779 125.328 31.9892 117.323C29.4771 102.594 26.6581 74.997 23.5374 34.544C28.4785 37.1052 35.3283 39.719 44.0817 42.3883C61.5911 47.6189 79.9691 50.498 99.2131 51.035C118.454 51.6182 135.098 48.1497 149.141 40.6787V40.6324Z" fill="#5C370D"/>
<path fill-rule="evenodd" clip-rule="evenodd" d="M167.995 136.218C165.134 159.918 163.399 172.03 162.794 172.567C162.188 173.203 162.362 176.995 163.314 183.935C163.314 191.727 160.583 197.705 155.125 201.867C147.235 207.953 145.068 193.86 148.623 159.597C150.009 146.79 154.256 117.808 161.363 72.6579L179.957 49.921L183.208 57.4475C185.546 63.212 187.324 67.8562 188.539 71.3773C189.579 74.5804 187.889 78.4748 183.468 83.0666C177.835 88.8311 174.67 92.7255 173.978 94.756C172.936 97.6321 170.941 111.457 167.995 136.218Z" fill="#5C370D"/>
<path fill-rule="evenodd" clip-rule="evenodd" d="M179.957 51.5195C183.338 47.2486 186.287 49.276 188.796 57.6049C191.225 65.9306 190.747 72.6548 187.366 77.7774C184.16 82.6901 181.429 80.3942 179.177 70.8927C177.008 61.2863 177.271 54.8276 179.957 51.5195Z" fill="#573005"/>
<path fill-rule="evenodd" clip-rule="evenodd" d="M45.7694 122.288C44.7292 125.917 43.9049 141.02 43.2989 167.602C42.693 194.819 42.0429 210.193 41.3485 213.714C39.9624 221.401 39.4839 241.361 39.9182 273.596L34.9772 267.193C36.3633 236.664 37.5335 216.275 38.4879 206.027C39.3539 196.421 40.2225 181.479 41.0885 161.195C41.9545 138.249 42.0429 123.625 41.3485 117.326L31.9866 34.3866L39.2681 41.91C40.8284 53.6518 42.2587 65.7671 43.559 78.2557C46.2453 103.437 46.9839 118.113 45.7694 122.276V122.288Z" fill="#4D2C09"/>
<path fill-rule="evenodd" clip-rule="evenodd" d="M74.6354 47.838L82.1769 49.1186C81.1367 57.3364 80.0965 66.0911 79.0563 75.3765C76.8901 94.0585 75.634 106.334 75.2855 112.204C75.1113 116.69 74.8954 131.58 74.6354 156.878C74.3753 183.139 74.1153 199.951 73.8552 207.317C73.3351 221.725 73.3351 248.52 73.8552 287.692L67.3539 285.131C67.874 256.204 68.3499 235.389 68.7842 222.688C68.9558 219.275 69.3459 202.62 69.9544 172.733C70.5603 146.904 71.1247 130.515 71.6448 123.578C72.5992 111.719 73.5952 86.4734 74.6354 47.8349V47.838Z" fill="#4D2C09"/>
<path fill-rule="evenodd" clip-rule="evenodd" d="M47.9799 43.0332L55.9115 45.434L55.6515 70.7322C55.4798 88.8773 55.5214 101.421 55.7815 108.362L60.2024 216.278C60.6367 229.835 61.5885 251.933 63.063 282.564L57.2118 281.267C58.252 260.882 58.0362 246.415 56.5617 237.874C55.9557 234.353 55.3914 217.914 54.8713 188.564C54.437 159.847 53.571 142.448 52.2708 136.366C50.7963 129.534 49.626 111.92 48.7601 83.5263C48.3258 69.3343 48.0657 55.8335 47.9799 43.0239V43.0332Z" fill="#4D2C09"/>
<path fill-rule="evenodd" clip-rule="evenodd" d="M81.9169 104.838L90.4987 57.2809C89.5443 66.0325 88.5925 75.2686 87.6381 84.9799C85.6435 104.622 84.6474 117.061 84.6474 122.288C84.6474 126.559 84.5174 141.125 84.2574 165.997C84.0857 190.015 84.4732 205.496 85.4276 212.43C86.8137 223.426 86.0777 248.511 83.2172 287.686L80.3566 286.409C81.311 269.436 81.7869 256.253 81.7869 246.86C81.7869 239.071 81.3526 222.842 80.4866 198.189C79.6206 172.141 78.8404 154.956 78.1461 146.63C77.5402 139.134 78.7962 125.205 81.9169 104.816V104.838Z" fill="#4D2C09"/>
<path fill-rule="evenodd" clip-rule="evenodd" d="M52.2708 281.277L49.2802 278.715C47.8915 256.62 47.1997 242.583 47.1997 236.605C47.1997 232.868 47.9357 216.964 49.4102 188.891L51.4906 147.901L52.0107 193.06C52.3566 224.12 52.6609 242.055 52.9209 246.86C53.441 254.544 53.2252 266.032 52.2708 281.277Z" fill="#4D2C09"/>
<path fill-rule="evenodd" clip-rule="evenodd" d="M149.531 127.414C148.316 117.916 147.971 101.209 148.491 77.299C148.753 65.4523 149.097 54.5097 149.531 44.4743L154.602 38.0711C152.696 67.9611 151.481 90.5344 150.961 105.797C150.529 122.344 152.956 143.584 158.243 169.524C160.149 178.918 163.748 205.975 169.035 250.702L161.753 264.635C159.847 245.953 158.674 232.822 158.24 225.243C157.634 216.279 156.464 201.442 154.729 180.732C152.48 155.209 150.745 137.437 149.531 127.405V127.414Z" fill="#4D2C09"/>
<path fill-rule="evenodd" clip-rule="evenodd" d="M158.243 265.909C152.004 249.791 148.881 239.599 148.881 235.331L149.531 161.995L151.091 191.937C152.306 212.646 153.216 224.549 153.824 227.641C154.862 232.77 156.334 245.527 158.243 265.909Z" fill="#4D2C09"/>
<path fill-rule="evenodd" clip-rule="evenodd" d="M179.177 71.3711L182.038 76.4968C180.997 77.1386 179.653 78.2588 178.007 79.8604C174.8 83.0635 171.851 87.0629 169.165 91.8676C166.479 96.5612 164.354 103.717 162.794 113.321C162.162 117.227 161.707 120.801 161.431 124.05C161.743 119.388 162.198 114.478 162.794 109.321C164.094 97.3667 165.483 89.8402 166.957 86.7481C168.517 83.545 171.029 80.0209 174.496 76.1789C176.231 74.2564 177.788 72.6548 179.177 71.3711Z" fill="#4D2C09"/>
<path fill-rule="evenodd" clip-rule="evenodd" d="M157.593 36.63L163.314 29.4244L164.094 32.785C164.528 35.7721 164.744 38.8179 164.744 41.9131V67.5322L159.023 84.1806L157.593 36.63Z" fill="#4D2C09"/>
<path fill-rule="evenodd" clip-rule="evenodd" d="M94.7895 132.537C94.4437 138.196 94.8754 154.687 96.0898 182.01C97.3901 209.23 98.3861 224.441 99.0778 227.644C99.7722 230.634 100.682 236.716 101.811 245.897C102.937 254.331 103.717 261.002 104.149 265.909L105.579 290.251L101.291 288.488C100.942 281.764 100.378 274.293 99.6005 266.069C97.9544 249.634 96.0898 237.679 94.0094 230.208C91.929 223.058 91.0188 205.336 91.2788 177.048C91.9732 148.654 92.189 132.533 91.9289 128.692C91.5831 123.998 92.189 113.642 93.7493 97.632L96.2198 75.1914L101.291 58.5399L94.7895 132.512V132.537Z" fill="#4D2C09"/>
<path fill-rule="evenodd" clip-rule="evenodd" d="M107.792 58.5645C108.224 98.5917 107.964 121.545 107.012 127.414C106.406 131.469 106.749 147.108 108.05 174.329C109.35 199.519 110.434 216.062 111.3 223.962C112.255 232.393 111.779 254.065 109.87 288.97C107.441 253.207 105.753 231.967 104.799 225.243C104.019 219.691 103.153 206.296 102.198 185.055C101.247 162.963 100.942 148.015 101.288 140.223C101.548 133.286 102.719 117.595 104.799 93.1512C105.842 80.9897 106.838 69.4608 107.792 58.5738V58.5645Z" fill="#4D2C09"/>
<path fill-rule="evenodd" clip-rule="evenodd" d="M115.724 58.5646L119.235 57.2839L117.154 131.256C117.154 136.061 117.934 151.805 119.495 178.492C121.055 205.925 122.181 222.308 122.875 227.647C123.827 235.334 125.52 254.92 127.946 286.412H120.665C119.711 262.607 119.232 246.434 119.232 237.892C119.232 234.371 118.322 218.892 116.501 191.459C114.769 165.63 114.031 151.114 114.291 147.911C114.725 141.942 115.204 112.16 115.724 58.5769V58.5646Z" fill="#4D2C09"/>
<path fill-rule="evenodd" clip-rule="evenodd" d="M142.379 50.8776C141.945 60.484 141.513 70.5163 141.079 80.9774C140.213 101.792 139.909 114.336 140.169 118.604C140.515 123.513 141.079 138.671 141.857 164.074C142.639 189.163 143.03 205.28 143.03 212.43C143.03 219.908 143.331 228.44 143.94 238.05C144.546 248.085 145.196 254.01 145.89 255.827C146.93 258.389 148.405 264.311 150.311 273.599L145.24 278.722C143.334 255.772 142.379 242.589 142.379 239.176C140.473 184.204 138.999 153.354 137.958 146.63C137.438 142.785 137.353 132.163 137.698 114.768C138.044 97.3666 138.13 87.9732 137.958 86.5876C137.698 84.5602 137.527 78.2094 137.438 67.5353L137.308 52.1644L142.379 50.8838V50.8776Z" fill="#4D2C09"/>
<path fill-rule="evenodd" clip-rule="evenodd" d="M127.946 56.0034H132.235L130.547 86.5846C129.418 107.507 129.028 118.983 129.377 121.011C129.637 123.143 129.247 138.835 128.206 168.083C127.686 182.602 127.125 196.958 126.519 211.156C125.913 196.958 125.348 182.602 124.828 168.083C123.7 138.835 123.312 123.143 123.658 121.011C124.09 117.7 125.52 96.0305 127.946 56.0034Z" fill="#4D2C09"/>
<path fill-rule="evenodd" clip-rule="evenodd" d="M140.949 274.889C138.52 273.179 137.048 271.047 136.528 268.483C134.188 253.22 132.021 240.037 130.027 228.937C128.812 222.105 129.548 204.385 132.237 175.779L136.528 135.11L136.008 170.175C135.748 194.406 135.922 208.922 136.528 213.723C137.48 221.417 138.957 241.799 140.949 274.901V274.889Z" fill="#4D2C09"/>
<path fill-rule="evenodd" clip-rule="evenodd" d="M161.168 33.2664C156.94 37.6453 153.062 41.3823 149.531 44.4744C146.67 47.0387 142.031 49.1711 135.618 50.8807C129.202 52.5872 122.701 53.442 116.114 53.442C109.873 53.442 105.106 53.334 101.811 53.121C99.1221 52.905 95.1354 52.4792 89.8459 51.8404C85.5993 51.3065 81.2642 50.5042 76.8433 49.4396L71.3821 47.838L95.177 48.3194C112.255 48.3194 123.783 47.7855 129.764 46.7178C135.745 45.6501 143.284 42.7679 152.386 38.0711C155.653 36.4017 158.578 34.8032 161.168 33.2664C161.626 32.7819 162.084 32.3005 162.534 31.8253L164.224 31.3439C163.267 31.9641 162.247 32.606 161.168 33.2664Z" fill="#B06D22"/>
<path fill-rule="evenodd" clip-rule="evenodd" d="M178.007 63.0483L178.267 54.8831L181.13 70.8927C181.824 74.4044 182.927 76.6448 184.443 77.6199H184.378C182.209 77.191 180.649 76.1233 179.694 74.4168C178.657 72.5992 178.093 68.8097 178.007 63.0483Z" fill="#B06D22"/>
<path fill-rule="evenodd" clip-rule="evenodd" d="M103.631 287.695C102.677 261.65 101.421 245.736 99.8606 239.975C95.9598 226.632 94.0094 214.196 94.0094 202.667L95.9598 122.288C97.8686 185.481 98.9946 219.371 99.3405 223.959C99.5121 225.774 100.378 232.498 101.941 244.135C103.413 254.809 104.151 261.104 104.151 263.03L103.631 287.686V287.695Z" fill="#472600"/>
<path fill-rule="evenodd" clip-rule="evenodd" d="M138.219 269.766C137.35 263.255 136.484 256.586 135.618 249.751C133.969 235.982 133.233 228.243 133.405 226.536C133.668 224.722 134.273 222.052 135.225 218.531L136.526 213.727L137.956 225.252C138.824 233.686 139.256 240.037 139.256 244.308C139.259 251.128 138.913 259.614 138.219 269.766Z" fill="#472600"/>
<path fill-rule="evenodd" clip-rule="evenodd" d="M77.496 48.3163L82.1769 50.2388L80.2265 70.4144C78.6662 84.7175 77.496 93.79 76.7158 97.6351C75.8628 101.77 75.0177 110.281 74.1803 123.171L77.496 48.3163Z" fill="#472600"/>
<path fill-rule="evenodd" clip-rule="evenodd" d="M50.8405 204.268L51.2306 215.637C51.4906 223.857 51.8365 229.727 52.2708 233.248C52.8767 238.907 52.7051 250.541 51.7507 268.155C50.1045 255.133 49.1501 246.594 48.8901 242.536C48.7184 240.083 48.9785 232.982 49.6702 221.244L50.8405 204.262V204.268Z" fill="#472600"/>
<path fill-rule="evenodd" clip-rule="evenodd" d="M33.4169 42.3914L31.9866 39.0309L40.1783 44.9527L44.9893 101.153C42.4772 88.1275 40.5684 79.3234 39.2681 74.7316C38.4879 71.9574 37.2735 65.7116 35.6274 55.9972L33.4169 42.3914Z" fill="#472600"/>
<path fill-rule="evenodd" clip-rule="evenodd" d="M29.126 39.0309L33.0268 100.193L23.5349 34.5471L29.126 39.0309Z" fill="#4D2C09"/>
<path fill-rule="evenodd" clip-rule="evenodd" d="M152.261 53.4388L154.602 96.0304C154.948 98.8046 154.298 111.562 152.651 134.299C151.351 120.1 150.787 110.599 150.961 105.797L152.261 53.4388Z" fill="#472600"/>
<path fill-rule="evenodd" clip-rule="evenodd" d="M119.625 59.8452L123.395 57.7622L117.544 113.003L119.625 59.8452Z" fill="#472600"/>
<path fill-rule="evenodd" clip-rule="evenodd" d="M51.2306 166.642L55.1314 233.248C55.3914 238.373 54.437 254.386 52.2708 281.283L52.6608 253.584C52.7467 248.674 52.7909 244.348 52.7909 240.614C52.7909 233.464 52.6192 227.588 52.2708 223.003C51.8365 218.414 51.5348 207.629 51.3606 190.659L51.2306 166.648V166.642Z" fill="#4A2C09"/>
<path fill-rule="evenodd" clip-rule="evenodd" d="M40.1783 44.9526L43.689 69.2911C46.0295 86.7974 47.2855 98.5392 47.4598 104.517C47.7198 114.123 45.9437 135.101 42.1287 167.444C42.7346 147.059 43.3847 134.033 44.0791 128.377C45.1193 118.341 45.2493 108.414 44.4692 98.5948L40.1783 44.9526Z" fill="#4A2C09"/>
<path fill-rule="evenodd" clip-rule="evenodd" d="M99.8606 85.7821V106.118C99.7722 120.739 99.598 130.67 99.3405 135.897C99.0779 142.09 99.728 159.538 101.291 188.255C102.763 216.544 103.891 233.782 104.672 239.975C105.623 247.98 106.102 262.761 106.102 284.326C105.15 266.711 104.323 255.932 103.631 251.982C102.68 246.647 101.899 242.163 101.294 238.534C100.165 231.915 99.5147 227.061 99.3431 223.962C99.0805 220.015 98.6072 206.296 97.9128 182.812C97.2185 159.115 96.8726 144.331 96.8726 138.461C96.8726 133.552 97.3927 123.304 98.4329 107.72L99.8606 85.7759V85.7821Z" fill="#4A2C09"/>
<path fill-rule="evenodd" clip-rule="evenodd" d="M142.379 50.8776L149.531 44.4744L140.949 98.1134L142.379 50.8776Z" fill="#472600"/>
<path fill-rule="evenodd" clip-rule="evenodd" d="M161.753 264.644C157.938 257.065 155.554 250.711 154.602 245.588C153.822 241.317 152.782 227.391 151.481 203.799C150.181 179.995 150.009 169.854 150.961 173.378C151.916 176.582 153.996 192.752 157.202 221.892C158.849 236.503 160.367 250.754 161.753 264.644Z" fill="#472600"/>
<path fill-rule="evenodd" clip-rule="evenodd" d="M169.165 112.201C168.127 118.181 166 138.301 162.794 172.57L163.314 113.487L170.595 85.4674L170.465 95.5552C170.205 102.915 169.771 108.467 169.165 112.201Z" fill="#472600"/>
<path fill-rule="evenodd" clip-rule="evenodd" d="M134.708 179.291V168.722L134.838 176.887C135.444 199.408 136.487 212.542 137.958 216.275C139.521 220.012 140.343 229.406 140.429 244.456C140.515 252.035 140.429 259.185 140.169 265.909C139.215 246.378 138 232.393 136.528 223.959C135.662 218.624 135.056 203.734 134.708 179.291Z" fill="#4A2C09"/>
<path fill-rule="evenodd" clip-rule="evenodd" d="M150.961 168.401L158.243 225.243L161.756 264.635C159.415 246.807 157.769 235.763 156.815 231.489C156.209 228.928 155.036 217.615 153.304 197.547L150.961 168.392V168.401Z" fill="#4A2C09"/>
<path fill-rule="evenodd" clip-rule="evenodd" d="M153.172 131.898L153.822 113.484C153.993 111.457 153.952 106.492 153.689 98.5917C153.429 90.5869 153.127 85.3563 152.779 82.903C152.519 80.7707 152.865 74.5773 153.819 64.329L155.379 49.6C155.379 66.2515 154.989 76.0709 154.209 79.0611C153.778 80.9836 153.863 84.8256 154.472 90.5869C154.818 93.6821 155.338 97.6845 156.032 102.597C156.552 106.01 155.598 115.777 153.172 131.898Z" fill="#4A2C09"/>
<path fill-rule="evenodd" clip-rule="evenodd" d="M123.395 57.7623L125.086 56.6452L119.235 107.72L123.395 57.7623Z" fill="#4A2C09"/>
<path fill-rule="evenodd" clip-rule="evenodd" d="M53.7011 135.74C52.6609 129.87 52.7051 123.572 53.8311 116.845L55.7815 108.362L61.2426 212.434C57.8619 170.697 55.3472 145.133 53.7011 135.74Z" fill="#472600"/>
<path fill-rule="evenodd" clip-rule="evenodd" d="M29.9062 265.261L37.0576 234.047L36.6676 271.032L29.9062 265.261Z" fill="#472600"/>
<path fill-rule="evenodd" clip-rule="evenodd" d="M163.314 30.5447L164.744 34.3866L163.444 35.0285L163.314 30.5447Z" fill="#1C1105"/>
<path fill-rule="evenodd" clip-rule="evenodd" d="M108.182 49.1187C100.381 48.5848 94.8338 47.5171 91.5415 45.9155L101.681 48.3163C102.375 46.6098 105.366 45.9155 110.653 46.2364C113.425 46.3414 117.024 46.5543 121.445 46.8752C123.265 46.6623 126.428 45.647 130.934 43.8356C131.717 43.5147 135.355 42.9808 141.857 42.234C143.253 42.0458 144.53 41.8051 145.695 41.515C142.816 42.9314 140.411 44.0238 138.479 44.7953C133.712 46.8228 129.161 48.2114 124.826 48.9582C120.753 49.597 115.204 49.6494 108.182 49.1187Z" fill="#8C6A44"/>
<path fill-rule="evenodd" clip-rule="evenodd" d="M184.248 74.2564C183.444 73.6145 182.753 72.4388 182.168 70.7323C184.16 71.7599 185.936 69.6244 187.499 64.329C188.281 67.6371 188.453 70.4144 188.019 72.6548C187.41 75.321 186.154 75.858 184.248 74.2564ZM183.208 52.9606L184.963 55.923C183.465 53.7567 182.49 54.9047 182.038 59.3638C181.738 61.6628 181.564 64.6777 181.517 68.4117C181.153 66.7638 180.852 64.8166 180.607 62.567C179.827 56.0557 180.693 52.8526 183.208 52.9606Z" fill="#99744A"/>
<path fill-rule="evenodd" clip-rule="evenodd" d="M182.948 59.8453C183.301 58.4844 183.775 57.8981 184.381 58.0832C184.898 58.1913 185.332 58.938 185.681 60.3267C186.461 64.2766 185.462 65.7702 182.69 64.8105C182.256 63.4218 182.256 62.0363 182.69 60.6476C182.763 60.339 182.851 60.0706 182.948 59.8453Z" fill="#99744A"/>
<path fill-rule="evenodd" clip-rule="evenodd" d="M180.347 51.0381L179.957 51.68C180.477 47.1962 182.038 46.5543 184.638 49.7575C187.239 52.8526 188.323 56.0558 187.889 59.3639C186.674 52.3188 184.16 49.5446 180.347 51.0381Z" fill="#99744A"/>
<path fill-rule="evenodd" clip-rule="evenodd" d="M34.5871 133.657L34.9772 132.376L32.5067 217.559C31.7266 226.419 30.9906 241.632 30.2963 263.193L23.7949 261.589C22.4088 252.3 20.7185 245.095 18.7239 239.975C17.5094 236.877 15.8191 233.887 13.6528 231.007L10.7922 227.644C10.3579 226.258 10.6206 224.231 11.5724 221.558C12.1783 219.852 12.9169 218.784 13.7829 218.358L14.8231 218.037L21.3244 225.564C21.7587 225.351 22.1462 224.762 22.4947 223.805C23.1006 222.092 23.189 219.75 22.7547 216.76C22.2346 213.767 23.7949 199.997 27.4357 175.446C30.9906 151.536 33.3727 137.607 34.5871 133.657V133.657Z" fill="#5C370D"/>
<path fill-rule="evenodd" clip-rule="evenodd" d="M30.2962 232.449L28.4759 266.073L23.7949 261.592C22.8405 254.973 21.4102 249.372 19.504 244.783C18.2896 242.006 16.4692 238.324 14.0429 233.732L10.7922 227.647C12.9585 227.326 14.433 226.527 15.2131 225.246C15.6474 224.394 16.4276 224.873 17.5536 226.687C17.8995 227.329 19.0281 229.625 20.9343 233.572C22.5804 237.096 24.4892 241.79 26.6555 247.659L30.2962 232.452V232.449Z" fill="#4D2C09"/>
<path fill-rule="evenodd" clip-rule="evenodd" d="M32.2467 193.542C30.6005 206.879 29.2118 214.887 28.0858 217.556C26.4397 221.827 24.185 224.493 21.3244 225.564C21.3244 221.08 21.5402 217.235 21.9745 214.035L29.9062 162.319V165.201C29.8204 167.444 29.4719 169.419 28.866 171.126C28.26 172.835 27.7815 179.556 27.4357 191.298C27.264 197.168 27.1314 202.88 27.0456 208.431L34.3271 174.329L32.2467 193.542Z" fill="#4D2C09"/>
<path fill-rule="evenodd" clip-rule="evenodd" d="M31.0764 71.5345L34.9772 87.8651C35.7574 90.6393 36.9718 99.6069 38.618 114.765L32.5067 92.3489C31.5523 89.3587 31.0322 84.9829 30.9464 79.2184L31.0764 71.5345Z" fill="#472600"/>
<path fill-rule="evenodd" clip-rule="evenodd" d="M33.0268 100.193L37.8378 127.571C38.1837 130.133 37.882 136.113 36.9276 145.507C35.9732 154.9 34.9772 161.732 33.937 166C32.4651 171.552 30.4263 185.16 27.8257 206.829C28.26 187.833 28.8659 176.995 29.6461 174.329C30.4263 171.339 31.6407 164.398 33.2869 153.514C35.1931 141.347 36.0174 133.765 35.7574 130.778L33.0268 100.193Z" fill="#4A2C09"/>
<path fill-rule="evenodd" clip-rule="evenodd" d="M14.8231 218.038L21.3244 225.564L22.3646 233.248L14.8231 223.163V218.038Z" fill="#4A2C09"/>
<path fill-rule="evenodd" clip-rule="evenodd" d="M34.3271 206.83L34.067 212.594C33.8928 216.76 33.9812 219.747 34.3271 221.559C34.7614 224.552 33.7628 229.884 31.3365 237.571L29.6461 223.638C29.3002 221.398 29.8203 217.979 31.2064 213.393C32.5925 209.017 33.6327 206.83 34.3271 206.83Z" fill="#4D2C09"/>
<path fill-rule="evenodd" clip-rule="evenodd" d="M33.1568 209.554L33.937 213.717C34.4571 216.917 34.5871 219.534 34.3271 221.562L32.5067 234.05C31.5523 229.782 31.2922 226.314 31.7265 223.644C32.0724 221.935 32.4209 219.108 32.7668 215.158L33.1568 209.554Z" fill="#472600"/>
<path fill-rule="evenodd" clip-rule="evenodd" d="M106.752 109.161L109.223 127.571C109.743 131.842 109.051 143.849 107.142 163.596C106.362 145.664 105.972 134.832 105.972 131.095L106.752 109.161Z" fill="#472600"/>
<path fill-rule="evenodd" clip-rule="evenodd" d="M106.362 53.121L109.613 53.4389L103.501 79.058L106.362 53.121Z" fill="#472600"/>
<path fill-rule="evenodd" clip-rule="evenodd" d="M115.074 206.83L118.584 221.559C119.539 225.296 119.755 230.739 119.235 237.889C115.682 232.341 113.558 227.857 112.866 224.441C112.346 221.879 112.387 218.306 112.996 213.714C113.602 209.338 114.294 207.042 115.074 206.83Z" fill="#472600"/>
<path fill-rule="evenodd" clip-rule="evenodd" d="M115.074 206.83L118.584 221.559C119.105 224.228 119.323 229.671 119.235 237.889C117.848 233.408 117.154 229.298 117.154 225.564C117.154 223.213 116.808 219.371 116.117 214.035L115.074 206.83Z" fill="#4A2C09"/>
<path fill-rule="evenodd" clip-rule="evenodd" d="M89.8485 51.8405L95.5697 52.3188L90.1086 64.65L89.8485 51.8405Z" fill="#472600"/>
<path fill-rule="evenodd" clip-rule="evenodd" d="M58.7721 70.7322L59.8123 66.7298L62.4129 77.1385L63.063 83.7022C63.6689 88.6119 64.2775 92.5618 64.8834 95.5521C65.8378 100.357 66.7038 109.8 67.4839 123.893C66.2695 119.946 65.6636 116.9 65.6636 114.768C65.6636 113.379 64.8392 109.056 63.193 101.798C61.7211 95.4996 60.5925 91.0158 59.8123 88.3496C59.3781 86.6431 59.0764 83.227 58.9022 78.1013L58.7721 70.7322Z" fill="#472600"/>
<path fill-rule="evenodd" clip-rule="evenodd" d="M94.5295 48.6373C93.8352 48.9582 87.6381 48.9582 75.9357 48.6373C63.8874 48.4244 56.3874 48.051 53.441 47.5171C49.3686 46.6654 42.8673 44.101 33.937 39.8332C32.1166 39.0864 29.9504 37.3244 27.4357 34.5502L24.185 30.7051L32.6367 36.1487C39.484 39.9937 45.6836 42.2865 51.2306 43.0333C60.1582 44.4219 74.5912 46.2889 94.5295 48.6373Z" fill="#B06D22"/>
<path fill-rule="evenodd" clip-rule="evenodd" d="M67.4839 49.4396L72.815 49.1187L69.9544 61.9251L67.4839 49.4396Z" fill="#472600"/>
<path fill-rule="evenodd" clip-rule="evenodd" d="M85.1676 110.281L84.2574 115.086C83.6515 118.823 83.4356 122.023 83.6072 124.692C83.9531 128.963 83.6514 135.579 82.6971 144.55L80.7466 127.899C80.575 125.655 81.2668 122.079 82.8271 117.169L85.1676 110.281Z" fill="#472600"/>
<path fill-rule="evenodd" clip-rule="evenodd" d="M46.0295 39.6696L59.8123 49.4396L62.8029 118.928L57.0818 80.1782L46.0295 39.6696Z" fill="#472600"/>
<path fill-rule="evenodd" clip-rule="evenodd" d="M191.66 120.526L190.229 122.288C184.68 125.279 180.433 126.291 177.487 125.328C174.886 124.476 172.891 123.035 171.505 121.008L170.205 118.286L174.366 115.722L191.66 120.526Z" fill="#3F5511"/>
<path fill-rule="evenodd" clip-rule="evenodd" d="M170.595 117.326L172.028 113.802C173.414 111.454 175.235 110.599 177.489 111.241C180.956 112.093 185.681 115.188 191.662 120.526C185.421 123.625 180.87 124.745 178.009 123.89C176.189 123.251 174.41 121.971 172.678 120.048L170.595 117.326Z" fill="#586715"/>
<path fill-rule="evenodd" clip-rule="evenodd" d="M176.706 111.562C176.1 111.883 175.536 112.201 175.016 112.525C174.064 113.271 173.887 113.861 174.496 114.287C175.016 114.712 175.929 115.03 177.229 115.246C178.875 115.459 180.131 115.725 180.997 116.049C182.992 116.691 185.377 118.076 188.149 120.212C185.897 119.36 183.642 118.557 181.387 117.811C176.881 116.53 174.714 116.37 174.886 117.332C175.146 118.826 176.706 120.801 179.567 123.257C175.235 121.869 172.46 120.323 171.245 118.613C170.465 117.437 170.294 116.265 170.728 115.089C171.074 114.234 171.68 113.543 172.546 113.006C173.5 112.472 175.146 111.889 177.487 111.247L176.706 111.562Z" fill="#3F5511"/>
<path fill-rule="evenodd" clip-rule="evenodd" d="M185.678 120.366L181.907 121.807C181.387 122.02 180.651 121.863 179.694 121.329C178.743 120.795 177.962 120.048 177.357 119.085C176.922 118.338 178.178 118.338 181.127 119.085C182.602 119.406 184.118 119.835 185.678 120.366Z" fill="#668510"/>
<path fill-rule="evenodd" clip-rule="evenodd" d="M184.638 116.524C183.078 115.99 181.689 115.348 180.477 114.601C179.089 114.176 178.223 113.858 177.877 113.642C177.271 113.429 177.572 113.055 178.787 112.522C180.001 111.883 181.952 113.216 184.638 116.524Z" fill="#668510"/>
<path fill-rule="evenodd" clip-rule="evenodd" d="M194 95.7095L193.87 98.7522C193.09 100.885 192.05 103.128 190.749 105.476C188.149 110.065 185.637 112.947 183.21 114.123C179.915 115.725 176.795 116.206 173.846 115.564L170.335 114.123L172.546 107.396L194 95.7095Z" fill="#3F5511"/>
<path fill-rule="evenodd" clip-rule="evenodd" d="M169.945 112.842C169.251 111.349 168.819 109.642 168.645 107.72C168.299 103.983 169.469 101.366 172.158 99.8755C176.405 97.3111 183.689 95.9255 194 95.7095C190.099 104.89 186.287 110.439 182.56 112.361C180.306 113.537 177.531 113.963 174.239 113.642L169.945 112.842Z" fill="#586715"/>
<path fill-rule="evenodd" clip-rule="evenodd" d="M172.155 99.8755L170.855 103.557C170.421 105.159 170.684 105.905 171.635 105.797C172.501 105.692 173.63 105.159 175.016 104.196C177.011 102.81 178.529 101.847 179.567 101.314C182.082 100.138 185.59 99.2305 190.099 98.5887C187.067 99.9773 184.118 101.418 181.26 102.912C175.625 105.902 173.287 107.766 174.239 108.516C175.799 109.902 178.961 110.435 183.73 110.118C178.181 112.892 174.194 113.96 171.765 113.318C170.033 112.997 168.905 112.037 168.385 110.435C168.036 109.155 168.083 107.819 168.515 106.433C168.863 105.47 169.555 104.085 170.595 102.27C171.201 101.422 171.721 100.619 172.155 99.8755Z" fill="#3F5511"/>
<path fill-rule="evenodd" clip-rule="evenodd" d="M187.629 101.156L185.158 106.439C184.724 107.186 183.814 107.72 182.428 108.041C180.953 108.467 179.567 108.467 178.267 108.038C177.229 107.612 178.485 106.331 182.038 104.196C183.772 103.131 185.637 102.113 187.629 101.156Z" fill="#668510"/>
<path fill-rule="evenodd" clip-rule="evenodd" d="M183.728 98.4313C181.645 99.3941 179.694 100.085 177.877 100.514C176.142 101.366 175.013 101.903 174.493 102.116C173.799 102.437 173.799 101.69 174.493 99.8754C175.013 98.6997 176.706 98.1134 179.564 98.1134C181.039 98.1134 182.428 98.2183 183.728 98.4313Z" fill="#668510"/>
<path fill-rule="evenodd" clip-rule="evenodd" d="M87.378 37.7995C94.7453 40.475 102.591 41.5026 110.913 40.8854C123.221 40.1664 129.072 34.7661 128.466 24.6845L126.776 22.6786C127.036 22.4719 127.255 22.3176 127.426 22.2157H125.346C125.606 22.5243 125.91 22.9348 126.256 23.4501C118.975 30.0323 110.783 33.8897 101.681 35.0222C94.9196 35.7412 85.9919 34.9697 74.8954 32.7078C70.3887 32.8096 66.9638 32.7602 64.6233 32.5535C60.2024 32.1431 57.2976 29.9305 55.9115 25.9188C59.118 21.3918 64.5791 17.9973 72.2949 15.7354C78.0161 13.9857 83.9115 13.1123 89.9785 13.1123C96.0456 13.1123 102.071 13.5752 108.052 14.501C115.768 15.7354 121.619 17.5344 125.606 19.9013C118.759 12.9056 107.231 9.40927 91.0188 9.40927C85.3834 9.40927 78.752 10.8504 71.1247 13.7295C63.4089 16.5068 56.9517 19.9013 51.7507 23.913C52.3566 29.5694 57.992 33.5317 68.6542 35.7937C70.3887 36.1023 76.63 36.7719 87.378 37.7995ZM126.646 23.913C126.56 23.8111 126.428 23.6569 126.256 23.4501C126.342 23.3452 126.474 23.2433 126.646 23.1415V23.913ZM113.643 38.1081C114.595 37.9013 115.508 37.6977 116.374 37.4909C115.074 38.0063 113.688 38.3642 112.213 38.571C112.645 38.3642 113.123 38.2099 113.643 38.1081ZM109.092 25.4559C106.578 25.8664 101.897 26.6378 95.0496 27.7704C88.6367 28.9029 83.6931 28.4894 80.2265 26.536C81.0067 24.6845 82.4812 23.2433 84.6475 22.2157C83.7815 23.3483 83.0429 24.8387 82.437 26.6903C84.0831 23.3976 86.8579 21.651 90.7587 21.4443C92.925 21.3424 95.7882 21.5986 99.3405 22.2157H99.728L102.849 23.7587C102.934 22.7311 102.677 21.9071 102.068 21.29C103.109 21.3918 104.19 21.651 105.319 22.0614C103.847 20.5185 101.59 19.5927 98.5577 19.2841C98.2951 19.2841 97.6891 19.2317 96.7374 19.1298H89.8459C86.9853 19.1298 85.0349 19.1823 83.9947 19.2841C83.0403 19.4878 82.1743 19.8489 81.3942 20.3642C77.7534 21.0832 74.3727 22.2682 71.2521 23.913C71.9464 30.702 78.0577 33.686 89.5859 32.8621C95.7413 32.5535 100.724 31.5753 104.539 29.9305L102.719 31.6277C105.319 31.6277 107.355 31.2667 108.83 30.5477C110.999 29.4151 112.731 27.3599 114.031 24.3759C113.513 23.9654 112.645 23.5519 111.43 23.1415L109.092 25.4559ZM42.2587 31.4734C42.0845 28.6961 42.6488 26.2274 43.9491 24.0673C43.5148 25.817 43.819 27.6685 44.8593 29.6219L46.5496 29.7762L45.1193 28.8504C44.3392 24.3234 48.24 20.1081 56.8217 16.1982C61.2426 14.1399 66.3579 12.1341 72.1649 10.1807C70.7788 9.97707 69.4343 9.97707 68.1341 10.1807L68.2641 10.0264C68.87 9.92461 70.6488 9.87215 73.5952 9.87215C75.8498 9.97707 77.5402 9.56356 78.6662 8.63779C77.8861 8.22737 77.1501 7.86632 76.4558 7.55773C85.2118 6.83871 94.9638 6.94055 105.712 7.86632C120.015 9.30743 132.063 11.3133 141.857 13.8838C138.476 10.0789 132.539 7.50527 124.043 6.16908C114.678 5.34514 108.44 4.67859 105.319 4.16325C103.067 3.85466 99.8164 3.95649 95.5671 4.47183C90.4519 5.19084 87.0295 5.5519 85.295 5.5519C81.3942 5.5519 77.8393 6.01478 74.6328 6.94055C72.1181 6.53013 69.2159 6.99301 65.921 8.3292C65.055 8.63779 64.3165 8.99884 63.7105 9.40927C52.4424 11.6712 44.9867 15.8896 41.3459 22.0614C39.3513 22.7805 37.9236 23.3483 37.055 23.7587H40.4357C39.8298 24.7863 39.4814 25.8694 39.3955 26.9989C39.3097 26.897 39.2239 26.7921 39.1355 26.6903L37.055 25.1473C36.9692 25.2492 36.5349 25.5084 35.7548 25.9188C35.2347 26.2274 34.9304 26.9989 34.8446 28.2332C36.1449 31.1124 39.6114 33.2231 45.2467 34.5593C44.1233 33.6336 43.1247 32.6059 42.2587 31.4734ZM59.2922 51.3775C58.5121 51.1707 57.7761 50.9146 57.0818 50.606C51.4464 48.6526 46.6354 46.5419 42.6488 44.2799C33.7212 39.2406 28.8244 33.3743 27.9558 26.6903C27.0898 20.3117 33.3311 14.8096 46.6796 10.1807C59.0764 6.06724 74.1153 3.70036 91.7989 3.08318C110.003 2.466 125.434 4.00895 138.088 7.71202C152.306 11.9304 159.717 18.2565 160.326 26.6903C160.932 33.686 155.991 40.2158 145.503 46.2857C143.682 47.3133 141.818 48.2916 139.911 49.2173C138.874 49.6278 137.875 50.0937 136.923 50.606C130.682 53.1765 123.832 55.0281 116.379 56.1606C113.779 56.571 111.092 56.9321 108.318 57.2407C103.548 57.5493 98.9114 57.6511 94.4021 57.5492C92.1474 57.4474 89.8511 57.3425 87.5106 57.2407C87.0764 57.2407 86.6889 57.1882 86.3404 57.0864H85.8177C84.4316 56.8796 83.0429 56.6759 81.6568 56.4692C78.4504 56.0588 75.2413 55.494 72.0349 54.7719L72.1649 54.3091C81.0925 56.571 90.6287 57.5493 100.771 57.2407C111.779 56.8302 122.574 54.8244 133.147 51.2232C141.209 48.4459 147.45 44.4836 151.871 39.3425C155.078 35.6394 156.16 31.5753 155.122 27.1532C154.168 23.1415 151.957 20.1574 148.488 18.2041L148.878 19.1298C150.873 20.3642 152.129 22.9872 152.649 26.9989C153.169 31.0105 152.693 34.3032 151.219 36.8737C150.35 38.3149 148.184 39.8053 144.717 41.3483C144.283 41.555 141.942 42.4284 137.696 43.9713C125.559 48.9087 112.642 51.9422 98.9478 53.0747C93.8352 53.59 87.8513 53.1796 81.0041 51.8403C74.417 50.5042 69.1301 49.4241 65.1408 48.6001C65.4009 48.1897 65.5751 47.7762 65.6609 47.3658L62.4129 47.0572C62.2386 47.3658 62.1528 47.7268 62.1528 48.1373C56.3458 47.0047 49.8003 43.8695 42.5188 38.7253C32.7226 31.8345 29.5603 25.0455 33.0268 18.3584C30.7722 19.1823 29.7762 21.3424 30.0362 24.8387C30.3821 27.721 31.3365 30.5477 32.8968 33.325C34.3713 36.0004 36.2775 38.1081 38.618 39.6511C39.1381 40.0615 41.1743 41.2465 44.7292 43.1998C52.0107 47.1097 59.9424 50.3992 68.5241 53.0747C69.4785 53.3833 70.4303 53.6919 71.3847 54.0005L71.1247 54.4633H70.9946V54.7719L66.4437 61.5609L63.5831 54.7719L62.4129 80.5392L62.2829 78.8419L62.1528 78.0705L59.5523 52.9204L59.4223 51.686C59.5939 51.7879 59.7681 51.9422 59.9424 52.1489C60.0308 54.0005 60.2466 57.2407 60.5925 61.8695C60.6809 62.3848 60.7667 63.3106 60.8526 64.6468C61.0268 65.6744 61.3727 66.4459 61.8928 66.9612C62.4129 64.8011 62.4571 61.9713 62.0228 58.475C61.5885 55.2873 60.8942 53.1796 59.9424 52.1489C59.8565 51.0164 59.8123 50.3992 59.8123 50.2974L59.2922 51.3775ZM60.0724 41.5026C59.4665 41.7093 58.8579 41.9655 58.252 42.2741C59.8123 43.3017 61.807 44.0238 64.2333 44.4342C66.6596 44.8446 69.7386 44.9495 73.4652 44.7428C75.1113 44.8446 79.0121 46.079 85.1676 48.4459C89.3284 50.1956 92.9692 50.6584 96.0898 49.8345C99.2105 50.1431 102.547 50.1431 106.102 49.8345C109.051 49.6278 113.339 48.9087 118.975 47.6744C121.747 47.0572 125.692 46.2857 130.807 45.36C135.142 44.2274 138.957 42.1198 142.249 39.0339C142.944 38.3149 143.594 37.6452 144.2 37.028C142.119 40.1139 141.035 41.7587 140.949 41.9655C143.029 42.5827 145.456 39.8053 148.231 33.6336C150.397 28.9029 150.875 25.8663 149.661 24.5302C149.575 23.913 149.401 23.2958 149.141 22.6786C148.446 19.1823 145.978 16.5593 141.729 14.8096C147.19 21.7004 146.496 27.8228 139.649 33.1707C134.619 37.0805 129.678 39.29 124.826 39.8053C123.96 39.9072 118.54 41.194 108.572 43.6627C101.899 45.1038 96.4799 45.4618 92.319 44.7428C89.0242 44.0238 84.2132 42.7894 77.8861 41.0397C71.3847 39.1882 66.6179 37.9538 63.5831 37.3366C57.3418 36.7195 52.2708 36.0498 48.37 35.3308C47.1555 35.1271 46.1153 34.8679 45.2493 34.5593C48.63 37.6452 53.0067 39.8053 58.382 41.0397C58.988 41.1415 59.5523 41.2958 60.0724 41.5026ZM132.887 20.5185C132.802 19.5927 132.542 18.8212 132.107 18.2041L130.677 20.2099C131.543 20.1081 132.279 20.2099 132.887 20.5185C133.062 22.4719 132.542 24.7863 131.327 27.4618C129.941 30.1372 128.248 32.6059 126.256 34.8679C129.205 36.5127 131.543 34.3526 133.277 28.3875C134.664 24.0673 134.534 21.4443 132.887 20.5185ZM40.9585 22.9101C41.0573 22.6354 41.1847 22.3515 41.3485 22.0614H41.4786C41.2341 22.3515 41.0625 22.6354 40.9585 22.9101ZM91.5389 23.1415C90.3244 22.9348 88.8941 23.3452 87.248 24.3759C87.9423 26.0206 89.2868 26.7921 91.2788 26.6903C93.185 26.5885 94.6595 25.817 95.6997 24.3759C95.0054 23.5519 93.9236 23.1415 92.4491 23.1415H91.5389Z" fill="#573005"/>
<path fill-rule="evenodd" clip-rule="evenodd" d="M109.092 25.456L104.542 29.9306C100.727 31.5784 95.7439 32.5536 89.5885 32.8622C78.0577 33.6861 71.9464 30.7021 71.2547 23.9131C74.3753 22.2683 77.756 21.0833 81.3968 20.3643C79.6622 21.2901 78.3619 22.6263 77.496 24.376C78.0161 26.7429 78.8405 28.0266 79.9665 28.2333C79.8807 28.3352 79.8365 28.4895 79.8365 28.6962C80.8767 29.0048 81.571 29.0573 81.9169 28.8505L80.0965 28.2333H79.9665C80.0523 27.6162 80.1407 27.0514 80.2265 26.5361C83.6931 28.4895 88.6341 28.903 95.0496 27.7705C101.899 26.6379 106.578 25.8665 109.092 25.456ZM113.643 38.1082C113.123 38.21 112.645 38.3643 112.213 38.5711C110.913 38.6729 109.613 38.7254 108.312 38.7254C97.8218 36.9788 90.8445 36.6671 87.378 37.7996C76.63 36.772 70.3887 36.1024 68.6542 35.7938C57.992 33.5318 52.3566 29.5695 51.7507 23.9131C56.9517 19.9014 63.4089 16.5069 71.1247 13.7296C78.752 10.8505 85.3834 9.40938 91.0188 9.40938C107.228 9.40938 118.759 12.9057 125.606 19.9014C121.619 17.5345 115.768 15.7355 108.052 14.5011C102.071 13.5753 96.0456 13.1125 89.9785 13.1125C83.9115 13.1125 78.0161 13.9858 72.2949 15.7355C64.5817 17.9974 59.1206 21.3919 55.9115 25.9189C57.2976 29.9306 60.2024 32.1432 64.6233 32.5536C66.9638 32.7603 70.3887 32.8097 74.8954 32.7079C85.9919 34.9699 94.9196 35.7413 101.681 35.0223C110.783 33.8898 118.975 30.0324 126.256 23.4502C125.91 22.9349 125.606 22.5244 125.346 22.2158H127.426C127.255 22.3208 127.036 22.472 126.776 22.6787L126.516 22.2158C126.516 22.5244 126.56 22.833 126.646 23.1416C126.474 23.2434 126.342 23.3453 126.256 23.4502L126.646 23.9131C126.646 25.0456 126.732 25.9189 126.906 26.5361C126.56 27.5637 126.17 28.5419 125.736 29.4677C125.824 28.1315 125.606 26.6904 125.086 25.1474L124.566 28.2333C123.003 31.3192 120.576 33.4794 117.282 34.7137C113.035 36.1548 110.393 37.3367 109.35 38.2625C110.824 38.2625 112.257 38.21 113.643 38.1082ZM76.4558 7.55784C75.8498 7.24925 75.2413 7.0425 74.6354 6.94066C77.8418 6.01489 81.3968 5.55201 85.2976 5.55201C87.0321 5.55201 90.4544 5.19096 95.5697 4.47194C99.819 3.9566 103.07 3.85477 105.322 4.16336C108.442 4.6787 114.684 5.34525 124.046 6.16919C132.542 7.50538 138.479 10.079 141.859 13.8839C132.063 11.3134 120.017 9.30754 105.714 7.86643C94.9638 6.94066 85.2118 6.83882 76.4558 7.55784ZM149.141 22.6787C148.795 21.753 148.103 20.929 147.06 20.21V22.2158C147.495 27.36 145.674 31.3717 141.599 34.2508C140.127 35.2784 136.962 36.5653 132.107 38.1082C125.954 40.0616 118.41 43.7646 109.483 49.2174C117.198 47.6745 126.256 44.8972 136.658 40.8855C139.345 39.8579 142.465 37.0806 146.023 32.5536C146.889 31.6278 147.539 30.7545 147.973 29.9306C147.453 31.7821 146.717 33.3775 145.76 34.7137C145.154 35.5377 144.631 36.3091 144.2 37.0281C143.594 37.6453 142.944 38.315 142.249 39.034C138.954 42.1199 135.142 44.2275 130.807 45.3601C125.692 46.2858 121.749 47.0573 118.975 47.6745C113.339 48.9088 109.051 49.6279 106.102 49.8346C102.55 50.1432 99.2131 50.1432 96.0898 49.8346C96.4357 49.6279 96.7399 49.4736 97 49.3717C92.319 48.7545 87.8981 47.7269 83.7373 46.2858C78.1903 43.9189 73.8968 42.3266 70.8646 41.5027C66.5295 40.3702 62.933 40.3702 60.0724 41.5027C59.5523 41.299 58.988 41.1416 58.382 41.0398C53.0067 39.8054 48.63 37.6453 45.2493 34.5594C46.1153 34.868 47.1555 35.1272 48.37 35.3309C52.2708 36.0499 57.3418 36.7196 63.5831 37.3367C66.6179 37.9539 71.3847 39.1883 77.8861 41.0398C84.2132 42.7895 89.0242 44.0239 92.319 44.7429C96.4799 45.4619 101.899 45.1039 108.572 43.6628C118.54 41.1941 123.96 39.9073 124.826 39.8054C129.678 39.2901 134.622 37.0806 139.649 33.1708C146.496 27.8229 147.188 21.7005 141.729 14.8097C145.978 16.5594 148.446 19.1824 149.141 22.6787ZM72.0349 54.772L71.5147 55.8521H70.9946L69.8244 59.5552C69.9102 58.5276 69.9544 57.6018 69.9544 56.7779L68.5241 59.5552L66.3137 65.5727C65.5335 64.0297 65.0134 62.8478 64.7533 62.0239C64.8392 64.6994 64.7533 67.8871 64.4933 71.5902C64.3217 72.9295 64.1474 74.5742 63.9732 76.5276L63.063 78.9963L62.8029 79.7678L62.6729 79.9221L62.4129 80.5393L63.5831 54.772L66.4437 61.561L70.9946 54.772L71.1247 54.4635L71.3847 54.0006C70.4303 53.692 69.4785 53.3834 68.5241 53.0748C59.9424 50.3993 52.0107 47.1098 44.7292 43.1999C41.1743 41.2466 39.1381 40.0616 38.618 39.6512C36.2775 38.1082 34.3713 35.9975 32.8968 33.3251C31.3365 30.5478 30.3821 27.7211 30.0362 24.8389C29.7761 21.3425 30.7747 19.1824 33.0268 18.3585C29.5603 25.0456 32.7225 31.8346 42.5188 38.7254C49.8003 43.8696 56.3432 47.0079 62.1528 48.1374C62.1528 47.7269 62.2386 47.3659 62.4129 47.0573L65.6635 47.3659C65.5777 47.7763 65.4035 48.1898 65.1434 48.6002C69.1326 49.4242 74.4195 50.5043 81.0067 51.8404C87.8539 53.1797 93.8377 53.5901 98.9504 53.0748C112.647 51.9423 125.562 48.9088 137.698 43.9714C141.945 42.4285 144.286 41.5551 144.72 41.3484C148.186 39.8054 150.353 38.315 151.221 36.8738C152.693 34.3033 153.172 31.0106 152.651 26.999C152.131 22.9873 150.873 20.3643 148.881 19.1299L148.491 18.2042C151.96 20.1576 154.17 23.1416 155.125 27.1533C156.162 31.5784 155.08 35.6395 151.874 39.3426C147.453 44.4868 141.209 48.446 133.15 51.2233C122.576 54.8245 111.781 56.8273 100.773 57.2408C90.6313 57.5494 81.0951 56.5711 72.1675 54.3092L72.0349 54.772ZM132.887 20.5186C134.536 21.4444 134.666 24.0674 133.277 28.3876C131.543 34.3558 129.205 36.5128 126.256 34.868C128.251 32.6061 129.941 30.1373 131.327 27.4619C132.542 24.7864 133.062 22.472 132.887 20.5186C132.281 20.21 131.543 20.1082 130.677 20.21L132.107 18.2042C132.542 18.8214 132.799 19.5928 132.887 20.5186ZM63.7131 9.40938C58.9464 11.6713 55.3914 13.1649 53.0509 13.8839C48.7158 15.325 45.1635 17.6395 42.3887 20.8272C42.0429 21.2376 41.7386 21.6511 41.4785 22.0615H41.3485C41.1847 22.3516 41.0573 22.6355 40.9584 22.9102V22.9873L40.8284 23.1416C40.6542 23.3453 40.5242 23.552 40.4383 23.7588H37.0576C37.9236 23.3484 39.3539 22.7836 41.3485 22.0615C44.9893 15.8898 52.445 11.6713 63.7131 9.40938ZM42.2587 31.4735C43.1247 32.6061 44.1233 33.6337 45.2493 34.5594C39.614 33.2232 36.1474 31.1125 34.8472 28.2333C34.933 26.999 35.2373 26.2275 35.7574 25.9189C36.5375 25.5085 36.9718 25.2493 37.0576 25.1474L39.1381 26.6904C39.2265 26.7922 39.3123 26.8971 39.3981 26.999C39.3123 27.4094 39.2681 27.8229 39.2681 28.2333C39.1823 30.9088 40.3941 32.6061 42.9088 33.3251L42.2587 32.7079C42.1729 32.2975 42.1729 31.884 42.2587 31.4735ZM91.5389 23.1416H92.4491C93.9236 23.1416 95.0054 23.552 95.6997 24.376C94.6595 25.8171 93.1876 26.5886 91.2788 26.6904C89.2842 26.7922 87.9423 26.0208 87.248 24.376C88.8941 23.3484 90.3244 22.9349 91.5389 23.1416Z" fill="#99744A"/>
<path fill-rule="evenodd" clip-rule="evenodd" d="M87.378 37.7996C90.8445 36.6671 97.8218 36.9757 108.312 38.7254C109.613 38.7254 110.913 38.6729 112.213 38.5711C113.685 38.3643 115.074 38.0033 116.374 37.491C118.369 36.8738 120.103 35.9481 121.575 34.7137C123.224 33.2726 124.61 31.526 125.736 29.4677C126.17 28.5419 126.56 27.5637 126.906 26.5361C126.735 25.9189 126.646 25.0456 126.646 23.9131V23.1416C126.56 22.833 126.516 22.5244 126.516 22.2158L126.776 22.6787L128.467 24.6845C129.072 34.7662 123.221 40.1665 110.913 40.8855C102.591 41.5027 94.7453 40.4751 87.378 37.7996ZM60.0724 41.5027C62.933 40.3701 66.5295 40.3701 70.8646 41.5027C73.8994 42.3266 78.1903 43.922 83.7373 46.2858C87.8981 47.7269 92.319 48.7545 97 49.3717C96.74 49.4735 96.4357 49.6278 96.0898 49.8346C92.9692 50.6585 89.3284 50.1956 85.1676 48.4459C79.0121 46.079 75.1113 44.8447 73.4652 44.7429C69.7386 44.9465 66.6596 44.8447 64.2333 44.4343C61.8044 44.0238 59.8123 43.3017 58.252 42.2741C58.8579 41.9655 59.4665 41.7094 60.0724 41.5027ZM59.2922 51.3775L59.8123 50.2975C59.8123 50.3993 59.8565 51.0165 59.9424 52.149C60.8968 53.1766 61.5885 55.2874 62.0228 58.4751C62.4571 61.9714 62.4129 64.8012 61.8928 66.9613C61.3727 66.4459 61.0268 65.6745 60.8526 64.6469C60.7667 63.3107 60.6809 62.3849 60.5925 61.8696C60.2466 57.2407 60.0308 54.0005 59.9424 52.149C59.7707 51.9422 59.5965 51.7879 59.4223 51.6861C59.3364 51.5843 59.248 51.5318 59.1622 51.5318L59.2922 51.3775ZM149.661 24.5302C150.875 25.8695 150.397 28.903 148.231 33.6336C145.458 39.8054 143.03 42.5827 140.949 41.9655C141.035 41.7588 142.119 40.114 144.2 37.0281C144.631 36.3091 145.152 35.5376 145.76 34.7137C146.714 33.3744 147.45 31.7821 147.973 29.9306C148.405 28.3876 148.753 26.7428 149.011 24.9931L148.101 23.7588C148.621 23.7588 149.052 23.9131 149.401 24.2217L149.661 24.5302ZM149.011 24.9931C149.097 24.6845 149.141 24.3759 149.141 24.0674C148.795 24.3759 148.709 24.5827 148.881 24.6845L149.011 24.9931ZM104.542 29.9306L109.093 25.456L111.43 23.1416C112.645 23.552 113.513 23.9655 114.031 24.3759C112.731 27.36 110.999 29.4152 108.83 30.5477C107.358 31.2667 105.319 31.6278 102.719 31.6278L104.542 29.9306ZM90.6287 19.1299H96.0898C96.2745 19.1361 96.4929 19.1886 96.74 19.2842C97.7776 19.3861 98.6045 19.5403 99.2105 19.7471C100.422 20.1575 101.377 20.6729 102.071 21.2901C102.677 21.9072 102.937 22.7312 102.851 23.7588L99.7306 22.2158H99.3405C95.7856 21.5986 92.925 21.3425 90.7587 21.4443C86.8579 21.6511 84.0858 23.3977 82.437 26.6904C83.0429 24.8388 83.7815 23.3483 84.6475 22.2158C85.5134 21.1882 86.4678 20.4167 87.5081 19.9014C87.6823 19.7996 87.8123 19.7471 87.8981 19.7471C88.5925 19.4385 89.5027 19.2318 90.6287 19.1299ZM68.1341 10.1808C69.4343 9.97716 70.7788 9.97716 72.1649 10.1808C66.3579 12.1342 61.2426 14.14 56.8217 16.1983C48.24 20.1082 44.3391 24.3235 45.1193 28.8505L46.5496 29.7763L44.8593 29.622C43.819 27.6686 43.5148 25.8171 43.9491 24.0674C44.2091 23.3483 44.555 22.6787 44.9893 22.0615C45.5952 21.1358 46.3338 20.3643 47.1997 19.7471C47.8057 19.3367 48.5 18.9232 49.2802 18.5127C55.1756 15.1183 58.9438 13.06 60.5925 12.341C62.7587 11.4152 64.8392 10.7456 66.8338 10.3351C67.0938 10.2302 67.3955 10.1808 67.744 10.1808H68.1341Z" fill="#D4A36C"/>
<path fill-rule="evenodd" clip-rule="evenodd" d="M116.374 37.4909C115.508 37.6977 114.595 37.9013 113.643 38.1081C112.257 38.2099 110.824 38.2624 109.353 38.2624C110.393 37.3366 113.037 36.1547 117.284 34.7136C120.579 33.4793 123.005 31.3191 124.568 28.2332L125.086 25.1473C125.606 26.6903 125.824 28.1314 125.736 29.4676C124.61 31.5259 123.224 33.2725 121.575 34.7136C120.103 35.948 118.369 36.8737 116.374 37.4909ZM63.7131 9.40928C64.319 8.99885 65.0576 8.6378 65.9236 8.32921C69.2185 6.99302 72.1207 6.53014 74.6354 6.94056C75.2413 7.0424 75.8472 7.24915 76.4557 7.55774C77.1501 7.86633 77.886 8.22738 78.6662 8.6378C77.5402 9.56357 75.8498 9.97708 73.5952 9.87216C70.6487 9.87216 68.8726 9.92462 68.2641 10.0265L68.134 10.1807H67.7439C67.3981 10.1807 67.0938 10.2332 66.8338 10.335C64.8392 10.7455 62.7587 11.4151 60.5925 12.3409C58.9463 13.0599 55.1756 15.1182 49.2802 18.5127C48.5 18.9231 47.8056 19.3366 47.1997 19.747C46.3337 20.3642 45.5952 21.1357 44.9893 22.0614C44.555 22.6786 44.2091 23.3483 43.9491 24.0673C42.6488 26.2274 42.0845 28.6961 42.2587 31.4734C42.1729 31.8838 42.1729 32.2974 42.2587 32.7078L42.9088 33.325C40.3941 32.6059 39.1823 30.9087 39.2681 28.2332C39.2681 27.8228 39.3123 27.4093 39.3981 26.9989C39.4839 25.8664 39.8324 24.7863 40.4383 23.7587C40.5267 23.555 40.6542 23.3483 40.8284 23.1415L40.9584 22.9872V22.9101C41.0625 22.6354 41.2341 22.3515 41.4785 22.0614C41.7386 21.651 42.0403 21.2375 42.3887 20.8271C45.1635 17.6394 48.7184 15.3249 53.0509 13.8838C55.3914 13.1648 58.9463 11.6712 63.7131 9.40928ZM149.141 22.6786C149.403 23.2958 149.575 23.913 149.661 24.5302L149.401 24.2216C149.052 23.913 148.621 23.7587 148.101 23.7587L149.011 24.993C148.751 26.7397 148.405 28.3875 147.973 29.9305C147.539 30.7544 146.889 31.6277 146.023 32.5535C142.468 37.0805 139.347 39.8578 136.658 40.8854C126.256 44.8971 117.198 47.6744 109.483 49.2173C118.413 43.7645 125.954 40.0646 132.107 38.1081C136.962 36.5652 140.127 35.2783 141.599 34.2507C145.672 31.3685 147.495 27.3599 147.06 22.2157V20.2099C148.101 20.9289 148.795 21.7529 149.141 22.6786ZM69.8244 59.5551L63.323 80.8477C63.323 80.6441 63.3673 80.4373 63.4531 80.2306V80.0763C63.6273 78.7401 63.7989 77.5582 63.9732 76.5275C64.1448 74.5741 64.319 72.9262 64.4933 71.5901C64.7533 67.887 64.8392 64.6993 64.7533 62.0238C65.0134 62.8477 65.5335 64.0296 66.3137 65.5726L68.5241 59.5551L69.9544 56.7778C69.9544 57.6017 69.9102 58.5275 69.8244 59.5551ZM149.011 24.993L148.881 24.6845C148.709 24.5826 148.795 24.3759 149.141 24.0673C149.141 24.3759 149.097 24.6845 149.011 24.993ZM139.909 49.2173C140.429 49.2173 140.907 49.1649 141.339 49.063C142.294 48.9612 143.204 48.8563 144.072 48.7544C142.681 49.1649 141.295 49.5259 139.909 49.8345C138.871 50.0413 137.873 50.2974 136.921 50.606C137.873 50.0906 138.869 49.6277 139.909 49.2173ZM96.0898 19.1298H96.7399C97.6917 19.2348 98.3003 19.2841 98.5603 19.2841C101.593 19.5927 103.847 20.5185 105.322 22.0614C104.193 21.651 103.111 21.3918 102.071 21.29C101.377 20.6728 100.422 20.1574 99.2104 19.747C98.6045 19.5403 97.7775 19.386 96.7399 19.2841C96.4929 19.1854 96.2744 19.136 96.0898 19.1298ZM90.6287 19.1298C89.5 19.2348 88.5924 19.4384 87.8981 19.747C87.8123 19.747 87.6823 19.7995 87.508 19.9013C86.4678 20.4167 85.5134 21.1881 84.6474 22.2157C82.4812 23.2433 81.0067 24.6845 80.2265 26.536C80.1407 27.0513 80.0523 27.6161 79.9665 28.2332H80.0965L81.9169 28.8504C81.571 29.0541 80.8767 29.0047 79.8364 28.6961C79.8364 28.4925 79.8807 28.3351 79.9665 28.2332C78.8404 28.0265 78.0161 26.7427 77.496 24.3759C78.3619 22.6262 79.6622 21.29 81.3968 20.3642C82.1769 19.8489 83.0429 19.4878 83.9973 19.2841C85.0375 19.1823 86.9879 19.1298 89.8485 19.1298H90.6287Z" fill="#8C6A44"/>
<path fill-rule="evenodd" clip-rule="evenodd" d="M70.9946 54.772V54.4634H71.1247L70.9946 54.772ZM133.147 55.5435C122.225 59.0398 109.873 61.1999 96.0898 62.0239C87.6823 62.3324 79.8365 62.1257 72.555 61.4067L75.1555 55.8521H71.5148L72.0349 54.772C75.2413 55.491 78.4478 56.0588 81.6568 56.4692C79.5764 56.3674 77.366 56.3149 75.0255 56.3149L82.177 56.7778C83.3914 56.8797 84.6033 56.9846 85.8177 57.0864H86.3378C86.6837 57.1883 87.0738 57.2407 87.5081 57.2407C89.8485 57.3426 92.1448 57.4475 94.3995 57.5493C102.115 57.9597 108.788 58.1665 114.424 58.1665C119.973 58.1665 126.212 57.2932 133.147 55.5435ZM139.909 49.8346C132.713 53.3309 126.862 55.3367 122.355 55.8521C120.709 55.9539 118.717 56.0557 116.374 56.1606C123.827 55.0281 130.677 53.1797 136.918 50.606C137.873 50.2975 138.869 50.0413 139.909 49.8346ZM42.6488 44.28L32.2467 43.5085C31.4665 42.8913 30.8606 42.376 30.4263 41.9655C27.9116 39.4968 25.7011 34.7137 23.7949 27.6161C23.3606 19.6977 30.2104 13.1649 44.3391 8.02068C57.6019 3.18508 73.8552 0.666987 93.0992 0.460232C112.775 0.0498077 129.247 2.10501 142.509 6.63202C157.507 11.6713 164.918 18.7689 164.744 27.9247C164.572 34.4051 160.932 40.2683 153.824 45.5143C155.125 44.0732 156.425 42.4284 157.725 40.5769L160.063 38.1082C156.076 40.7836 151.525 43.5609 146.41 46.4401C144.678 47.3658 142.988 48.2392 141.339 49.0631C140.907 49.1649 140.429 49.2174 139.909 49.2174C141.815 48.2916 143.68 47.3134 145.5 46.2858C155.988 40.2158 160.932 33.6861 160.323 26.6903C159.717 18.2566 152.303 11.9305 138.086 7.71209C125.432 4.00901 110 2.46607 91.7963 3.08324C74.1127 3.70042 59.0738 6.0673 46.677 10.1808C33.3285 14.8096 27.0846 20.3118 27.9532 26.6903C28.8217 33.3775 33.7212 39.2407 42.6488 44.28ZM34.8472 47.983C38.9222 49.2174 43.6448 51.2232 49.0201 54.0005C49.8003 54.3091 50.7547 55.2349 51.8807 56.7778C50.5804 56.2625 49.3244 55.7996 48.1099 55.3892C42.9089 53.3309 38.4879 50.8622 34.8472 47.983Z" fill="#945C1D"/>
<path fill-rule="evenodd" clip-rule="evenodd" d="M72.555 61.4067L63.3231 81.3107V80.8478L69.8244 59.5551L70.9946 55.8521H75.1555L72.555 61.4067ZM139.909 49.8346C141.295 49.526 142.681 49.1649 144.072 48.7545C143.204 48.8563 142.294 48.9612 141.339 49.0631C142.988 48.2391 144.678 47.3658 146.41 46.4401C151.525 43.5609 156.076 40.7836 160.063 38.1082L157.723 40.5769C156.422 42.4284 155.122 44.0732 153.822 45.5143C151.739 47.6744 149.572 49.3192 147.32 50.4517C143.851 52.1984 139.256 53.8462 133.535 55.3892C133.363 55.3892 133.233 55.4416 133.147 55.5435C126.212 57.2901 119.973 58.1665 114.424 58.1665C108.788 58.1665 102.115 57.9597 94.3995 57.5493C98.9062 57.6511 103.546 57.5493 108.315 57.2407C111.087 56.9321 113.776 56.5711 116.377 56.1606C118.717 56.0588 120.712 55.957 122.358 55.8521C126.862 55.3367 132.713 53.3309 139.909 49.8346ZM48.2399 50.4517C49.4544 51.6861 50.9705 53.4852 52.7909 55.8521L55.7815 62.4867L57.992 66.9613L59.0322 69.2757C58.6863 68.6585 58.382 68.0938 58.122 67.5785C55.6073 62.641 53.5268 59.0398 51.8807 56.7778C50.7521 55.2349 49.8003 54.3091 49.0201 54.0005C43.6448 51.2232 38.9222 49.2174 34.8472 47.983C34.2413 47.7794 33.6769 47.5726 33.1568 47.3658C29.9504 46.4401 27.7399 45.9772 26.5255 45.9772C23.4906 44.9496 21.9745 41.0922 21.9745 34.4051L23.0147 24.5302C23.1864 25.6627 23.449 26.6903 23.7949 27.6161C25.7011 34.7137 27.9116 39.4968 30.4263 41.9655C30.8606 42.3759 31.4665 42.8913 32.2466 43.5085C33.9812 44.641 36.1474 45.718 38.748 46.7487C41.6944 47.7763 43.8632 48.2916 45.2493 48.2916C45.9437 48.2916 46.9397 49.0106 48.2399 50.4517ZM85.8177 57.0864C84.6032 56.9846 83.3914 56.8797 82.1769 56.7778L75.0255 56.3149C77.366 56.3149 79.5764 56.3674 81.6568 56.4692C83.0429 56.676 84.4316 56.8797 85.8177 57.0864Z" fill="#B06D22"/>
<path fill-rule="evenodd" clip-rule="evenodd" d="M63.193 80.8478C63.0474 80.5485 62.8732 80.2399 62.6729 79.922L62.8029 79.7677L63.193 80.8478ZM63.3231 80.8478V81.0793L63.063 78.9963L63.9732 76.5276C63.799 77.5552 63.6273 78.7401 63.4531 80.0763V80.2306C63.3673 80.4374 63.3231 80.6411 63.3231 80.8478ZM42.6488 44.28C46.6354 46.5419 51.4464 48.6527 57.0818 50.606C57.7761 50.9146 58.5121 51.1708 59.2922 51.3775L59.1622 51.5318C59.248 51.5318 59.3364 51.5843 59.4222 51.6861L59.5523 52.9205L47.5898 49.3717L48.2399 50.4517C46.9397 49.0106 45.9437 48.2916 45.2493 48.2916C43.8632 48.2916 41.6944 47.7763 38.748 46.7487C36.1474 45.7211 33.9812 44.641 32.2466 43.5085L42.6488 44.28ZM62.2828 78.842C60.5483 74.315 59.1622 70.5625 58.122 67.5785C58.382 68.0938 58.6863 68.6585 59.0322 69.2757L57.9919 66.9613C57.5577 65.9337 57.2118 65.0573 56.9517 64.3383L57.8619 65.5726L62.1528 78.0705L62.2828 78.842Z" fill="#976423"/>
<path fill-rule="evenodd" clip-rule="evenodd" d="M63.063 78.9963L63.3231 81.0792C63.2867 81.0052 63.2425 80.928 63.193 80.8478L62.803 79.7677L63.063 78.9963ZM56.9518 64.3382L55.7815 62.4867L52.7909 55.852C50.9705 53.4851 49.4544 51.6861 48.24 50.4517L47.5898 49.3716L59.5523 52.9204L62.1528 78.0705L57.8619 65.5726L56.9518 64.3382Z" fill="#472600"/>
<ellipse cx="94.8153" cy="28.258" rx="59.8604" ry="23.3007" fill="#42290C"/>
</g>
</g>
<path d="M106.143 7.85712C111.502 11.2182 121.211 12.6576 128.354 13.8294C133.69 17.4758 135.416 20.2035 142.079 22.1478C141.872 25.7429 144.853 29.4274 146.571 32.9192C134.633 34.5302 134.592 38.2346 133.594 41.7709C126.824 43.883 122.141 47.1767 111.633 48.2764C102.278 47.0803 93.6541 48.3823 84.9309 49.3428C77.5942 46.2854 68.7247 44.8654 58.7274 44.6504C56.8292 40.4491 52.8054 37.1563 46.2496 34.9455C50.1826 31.2546 48.653 27.7969 46 24.3874C53.0019 21.7826 56.4624 18.6731 57.4796 15.2158C61.7583 12.6373 71.2346 11.3822 79.1911 8.39035C88.2584 9.35412 97.0759 8.88369 106.143 7.85712Z" stroke="white" stroke-width="1.1"/>
<path d="M104.575 11.1571C109.081 14.022 117.246 15.2484 123.252 16.2472C127.739 19.3547 129.191 21.6795 134.794 23.3368C132.124 26.1934 135.651 29.4182 138.571 32.5169C128.532 33.8899 128.498 37.0472 127.659 40.0608C120.557 41.1918 114.066 42.7858 109.192 45.6054C101.788 45.3573 94.5555 46.4976 86.7373 46.5142C80.5679 43.9085 73.1094 42.6982 64.7024 42.515C63.1065 38.9343 59.7225 36.128 54.21 34.2439C57.5169 31.0981 56.2309 28.1513 54 25.2455C59.8878 23.0254 62.7981 20.3754 63.6529 17.4288C70.3265 16.0836 76.8858 14.6232 81.9107 11.6115C89.5353 12.433 96.9503 12.0321 104.575 11.1571L104.575 11.1571Z" stroke="white" stroke-width="1.1"/>
<path d="M103.006 14.4572C106.661 16.7873 113.28 17.7847 118.15 18.5973C121.788 21.1246 122.966 23.0154 127.509 24.3635C125.344 26.6868 128.204 29.3096 130.571 31.8298C122.432 32.9465 122.403 35.5143 121.724 37.9655C115.965 38.8855 110.703 40.1818 106.75 42.475C100.371 41.6457 94.4922 42.5484 88.5438 43.2143C83.5417 41.0949 77.4942 40.1103 70.6772 39.9617C69.3836 37.0493 66.6398 34.7668 62.1703 33.2345C64.8512 30.676 63.8089 28.2792 62 25.916C66.7735 24.1103 69.1336 21.955 69.8264 19.5585C75.2378 18.4644 80.5557 17.2766 84.6303 14.8269C90.8125 15.4951 96.8246 15.1692 103.006 14.4573L103.006 14.4572Z" stroke="white" stroke-width="1.1"/>
<path d="M102.346 17.2857C105.33 19.1576 110.736 19.9587 114.713 20.6116C117.684 22.6415 118.646 24.1604 122.356 25.2434C120.588 27.1096 122.923 29.2163 124.857 31.2408C118.21 32.1378 118.186 34.2004 117.631 36.1694C112.928 36.9084 108.631 37.9497 105.403 39.7918C100.193 39.1256 95.3925 39.8507 90.5346 40.3857C86.4496 38.6831 81.5107 37.8923 75.9436 37.7729C71.5316 35.4334 71.4695 33.6001 68.9962 32.3692C71.1853 30.314 70.3343 28.3888 68.8571 26.4904C72.7554 25.0398 74.683 23.3087 75.2486 21.3836C79.6684 20.5047 84.0109 19.5506 87.339 17.5828C92.3877 18.1196 97.2977 17.8578 102.346 17.2859L102.346 17.2857Z" stroke="white" stroke-width="1.1"/>
<path d="M100.318 20.1143C102.511 21.5278 106.483 22.1327 109.404 22.6256C111.587 24.1583 112.294 25.3052 115.019 26.1232C113.72 27.5324 115.436 29.1231 116.857 30.6518C111.973 31.3291 111.956 32.8866 111.548 34.3733C108.093 34.9314 104.936 35.7177 102.565 37.1086C98.7366 36.6057 95.2094 37.1532 91.6403 37.5571C88.6393 36.2715 85.0105 35.6743 80.9206 35.5842C80.1442 33.8175 78.4978 32.4334 75.8163 31.5039C77.4247 29.9521 76.7996 28.4984 75.7143 27.0649C78.5785 25.9696 79.9944 24.6624 80.4101 23.2088C83.6574 22.5452 86.8475 21.8246 89.2927 20.3388C93.002 20.7441 96.609 20.5465 100.318 20.1146L100.318 20.1143Z" stroke="white" stroke-width="1.1"/>
<path d="M99.1977 22.4714C100.782 23.5031 103.65 23.9443 105.76 24.3041C107.337 25.4225 107.847 26.2594 109.816 26.8563C108.877 27.8846 110.117 29.0454 111.143 30.161C107.616 30.6552 107.604 31.7918 107.309 32.8766C104.813 33.2838 102.533 33.8576 100.821 34.8727C98.0557 34.5056 95.5086 34.9052 92.9308 35.2C90.7635 34.2618 88.1425 33.8259 85.1888 33.7602C84.6281 32.471 83.4389 31.461 81.5024 30.7827C82.6639 29.6503 82.2124 28.5895 81.4286 27.5434C83.4971 26.7442 84.5198 25.7903 84.8199 24.7295C87.1654 24.2452 89.4692 23.7194 91.2356 22.6352C93.9142 22.9309 96.5197 22.7868 99.1981 22.4715L99.1977 22.4714Z" stroke="white" stroke-width="1.1"/>
<path d="M98.302 24.8286C99.3987 25.4781 101.384 25.756 102.845 25.9825C103.936 26.6867 104.29 27.2136 105.653 27.5894C105.003 28.2369 105.861 28.9677 106.571 29.6702C104.13 29.9813 104.121 30.6969 103.917 31.38C102.189 31.6364 100.611 31.9977 99.4253 32.6368C97.5111 32.4056 95.7478 32.6572 93.9629 32.8428C92.4626 32.2521 90.6481 31.9776 88.6031 31.9363C88.215 31.1245 87.3917 30.4887 86.0511 30.0615C86.8553 29.3486 86.5426 28.6807 86 28.022C87.432 27.5189 88.1401 26.9182 88.3478 26.2502C89.9716 25.9453 91.5665 25.6142 92.7894 24.9316C94.6437 25.1177 96.4474 25.0271 98.3017 24.8286L98.302 24.8286Z" stroke="white" stroke-width="1.1"/>
<path d="M98.0891 26.2429C98.7593 26.6632 99.9728 26.8429 100.865 26.9895C101.532 27.4451 101.748 27.7861 102.581 28.0293C102.184 28.4482 102.709 28.9211 103.143 29.3757C101.651 29.5771 101.646 30.04 101.521 30.482C100.465 30.6479 99.5003 30.8817 98.7758 31.2952C97.6059 31.1457 96.5283 31.3085 95.4376 31.4286C94.5208 31.0464 93.4117 30.8687 92.1623 30.842C91.925 30.3167 91.4219 29.9053 90.6026 29.6289C91.0941 29.1676 90.903 28.7354 90.5714 28.3092C91.4466 27.9837 91.8793 27.595 92.0062 27.1628C92.9986 26.9655 93.9733 26.7513 94.7206 26.3096C95.8538 26.43 96.9561 26.3714 98.0894 26.2429L98.0891 26.2429Z" stroke="white" stroke-width="1.1"/>
<path d="M96.9578 27.1857C97.3233 27.4532 97.9852 27.5676 98.472 27.6609C98.8359 27.9508 98.9537 28.1678 99.4081 28.3225C99.1915 28.5891 99.4774 28.8901 99.7143 29.1794C98.9003 29.3075 98.8975 29.6021 98.8294 29.8833C98.2536 29.9889 97.7275 30.1377 97.3323 30.4009C96.6942 30.3057 96.1064 30.4093 95.5114 30.4857C95.0114 30.2425 94.4064 30.1295 93.7249 30.1125C93.5954 29.7782 93.3211 29.5164 92.8742 29.3405C93.1422 29.0469 93.038 28.7719 92.8571 28.5007C93.3345 28.2935 93.5705 28.0462 93.6398 27.7712C94.1811 27.6456 94.7127 27.5092 95.1203 27.2282C95.7384 27.3048 96.3396 27.2675 96.9577 27.1857L96.9578 27.1857Z" stroke="white" stroke-width="1.1"/>
<path d="M96.7337 27.6571C96.9775 27.8099 97.4187 27.8753 97.7433 27.9286C97.9858 28.0943 98.0644 28.2183 98.3673 28.3067C98.2229 28.4591 98.4135 28.631 98.5714 28.7963C98.0288 28.8696 98.0269 29.0379 97.9815 29.1986C97.5976 29.259 97.2469 29.344 96.9834 29.4943C96.558 29.44 96.1662 29.4991 95.7695 29.5428C95.4362 29.4038 95.0328 29.3392 94.5785 29.3295C94.4921 29.1385 94.3093 28.9889 94.0114 28.8884C94.1901 28.7207 94.1206 28.5635 94 28.4085C94.3182 28.2901 94.4756 28.1488 94.5217 27.9916C94.8826 27.9199 95.237 27.842 95.5087 27.6814C95.9208 27.7251 96.3217 27.7038 96.7337 27.6571L96.7337 27.6571Z" stroke="white" stroke-width="1.1"/>
<path d="M98.5714 28.1286L137.429 10.2143" stroke="white" stroke-width="1.1"/>
<path d="M98.5714 28.1286L137.429 10.2143" stroke="white" stroke-width="1.1"/>
<path d="M96.2857 28.1286L107.714 5.02856" stroke="white" stroke-width="1.1"/>
<path d="M95.1429 28.1286L76.8571 4.55713" stroke="white" stroke-width="1.1"/>
<path d="M92.8571 28.6L48.2857 11.6285" stroke="white" stroke-width="1.1"/>
<path d="M92.8571 29.0714L34.5714 23.4142" stroke="white" stroke-width="1.1"/>
<path d="M92.8571 30.0143L34.5714 36.6143" stroke="white" stroke-width="1.1"/>
<path d="M94 30.0143L51.7143 47.9286" stroke="white" stroke-width="1.1"/>
<path d="M95.1429 29.5428L84.8571 52.6428" stroke="white" stroke-width="1.1"/>
<path d="M97.4286 29.5428L114.571 52.6428" stroke="white" stroke-width="1.1"/>
<path d="M98.5714 29.0714L143.143 46.0428" stroke="white" stroke-width="1.1"/>
<path d="M156.857 34.2571L99.7143 28.6402L154.112 20.5857" stroke="white" stroke-width="1.1"/>
<path d="M97.4286 28.8357C97.4286 29.2262 96.9169 29.5428 96.2857 29.5428C95.6545 29.5428 95.1429 29.2262 95.1429 28.8357C95.1429 28.4451 95.6545 28.1285 96.2857 28.1285C96.9169 28.1285 97.4286 28.4451 97.4286 28.8357Z" fill="white" fill-opacity="0.91124" stroke="white" stroke-width="1.1"/>
</g>
<defs>
<filter id="filter0_f" x="-1" y="-53" width="196" height="293" filterUnits="userSpaceOnUse" color-interpolation-filters="sRGB">
<feFlood flood-opacity="0" result="BackgroundImageFix"/>
<feBlend mode="normal" in="SourceGraphic" in2="BackgroundImageFix" result="shape"/>
<feGaussianBlur stdDeviation="0.5" result="effect1_foregroundBlur"/>
</filter>
<radialGradient id="paint0_radial" cx="0" cy="0" r="1" gradientUnits="userSpaceOnUse" gradientTransform="translate(96.4149 257.276) scale(81.662 30.6408)">
<stop offset="0.0863" stop-opacity="0.2471"/>
<stop offset="0.8667" stop-opacity="0.102"/>
<stop offset="1" stop-opacity="0"/>
</radialGradient>
<clipPath id="clip0">
<rect width="194" height="291" fill="white" transform="translate(0 -52)"/>
</clipPath>
</defs>
</svg>
