<svg width="80" height="85" viewBox="0 0 80 85" fill="none" xmlns="http://www.w3.org/2000/svg">
<g clip-path="url(#clip0)">
<path d="M65 57.7743C65 57.7743 71.8477 57.9752 73.2172 59.1809C73.9664 59.8405 74.3057 62.0032 74.4594 63.8274C74.5867 65.3379 76.7311 65.9768 76.7311 65.9768" stroke="#383838" stroke-width="2.6307"/>
<path d="M66.7667 51.5448C66.7667 51.5448 70.8753 51.3439 72.4406 52.3487C73.4582 53.0019 74.8894 55.6091 75.7662 57.3533C76.2379 58.2916 78.486 58.2696 78.486 58.2696" stroke="#383838" stroke-width="2.6307"/>
<path d="M33.1539 41.9171L4.0513 33.3265C4.0513 33.3265 1.11653 32.1208 0.725254 31.1161C0.333965 30.1113 0.920903 22.4751 1.7035 20.2647C2.48609 18.0543 7.57291 12.2266 8.94244 11.8247C10.312 11.4228 27.92 23.279 30.855 26.4948C33.7897 29.71 36.3331 35.0854 36.9201 37.0949" fill="#383838"/>
<path d="M49.7801 31.851C49.7801 31.851 50.7094 23.21 50.3181 21.4015C49.9268 19.593 44.0574 0.905092 42.8834 0.502788C41.7095 0.100878 34.8619 3.3161 33.688 4.52175C32.5141 5.72745 27.036 15.1721 27.036 16.1769C27.036 17.1817 43.0308 31.2478 43.8128 33.0568" fill="#383838"/>
<path d="M36.8379 34.0159C31.8726 36.7348 26.3338 43.3166 25.6444 51.8129C24.8001 62.2191 39.0983 71.7467 48.1554 71.0307C52.3435 70.6998 56.3342 69.0069 59.591 66.336C59.3667 66.4647 59.1124 62.517 58.9233 62.622C58.422 62.9002 57.9075 63.1524 57.3837 63.3771C56.86 63.6019 56.3262 63.799 55.7839 63.9674C55.2417 64.1359 54.6914 64.276 54.1346 64.3853C53.5779 64.4945 53.0137 64.5718 52.4464 64.6191C51.9782 64.6581 51.4932 64.6632 50.9953 64.6344C50.4973 64.6056 49.9857 64.5431 49.4663 64.4504C48.9469 64.3578 48.4205 64.2349 47.8878 64.0824C47.355 63.93 46.8152 63.7503 46.2775 63.542C45.7397 63.3336 45.2017 63.0968 44.6672 62.8366C44.1326 62.5765 43.6013 62.2899 43.0781 61.9818C42.5549 61.6738 42.0421 61.3448 41.5385 60.9929C41.0349 60.6409 40.5419 60.2692 40.0661 59.8774C39.5904 59.4856 39.1325 59.0746 38.6929 58.6469C38.2533 58.2192 37.8317 57.7725 37.4365 57.3129C37.0412 56.8534 36.6714 56.3783 36.3287 55.8908C35.986 55.4033 35.6727 54.9034 35.3908 54.392C35.1089 53.8806 34.8568 53.3594 34.644 52.8281C34.5376 52.5624 34.4414 52.293 34.3538 52.0231C34.2661 51.7532 34.188 51.4841 34.1202 51.2105C34.0524 50.9369 33.9937 50.6594 33.9468 50.3825C33.8998 50.1056 33.8656 49.8265 33.8406 49.5469C33.8155 49.2673 33.8002 48.9892 33.7981 48.7074C33.7959 48.4255 33.8046 48.14 33.8264 47.8564C33.8701 47.2893 33.9384 46.7347 34.0282 46.189C34.1179 45.6432 34.2292 45.1059 34.3608 44.5828C34.4924 44.0597 34.6446 43.5486 34.8139 43.0496C34.9831 42.5505 35.1703 42.0666 35.3731 41.593C35.5758 41.1194 35.7958 40.656 36.0278 40.2092C36.2598 39.7623 36.5034 39.3323 36.7605 38.9135C37.0175 38.4948 37.286 38.0877 37.5639 37.6984C37.8418 37.3092 38.1294 36.9375 38.4239 36.5791C38.7185 36.2207 39.0194 35.878 39.3264 35.5518C39.6334 35.2256 39.9455 34.913 40.2608 34.6203C40.4253 34.4676 36.6374 34.1802 36.8379 34.0159Z" fill="#383838"/>
<path d="M36.9201 33.7768C36.7196 33.9411 36.5155 34.094 36.3166 34.2691C35.9355 34.6047 35.6069 35.3149 35.2357 35.689C34.8645 36.0631 34.5005 36.4561 34.1443 36.8671C33.7882 37.2781 33.4404 37.7043 33.1044 38.1506C32.7683 38.597 32.4437 39.0639 32.1329 39.5441C31.822 40.0243 31.5275 40.5175 31.2469 41.0298C30.9664 41.5422 30.7003 42.0736 30.4552 42.6167C30.21 43.1598 29.9837 43.7148 29.779 44.2871C29.5743 44.8593 29.3903 45.4455 29.2312 46.0454C29.072 46.6453 28.9373 47.2613 28.8289 47.8873C28.7204 48.5132 28.6377 49.1491 28.5849 49.7995C28.5585 50.1247 28.5481 50.4522 28.5507 50.7754C28.5532 51.0986 28.5717 51.4174 28.602 51.7381C28.6323 52.0587 28.6737 52.3788 28.7304 52.6963C28.7872 53.0138 28.8581 53.3321 28.9401 53.6458C29.0221 53.9596 29.1166 54.2682 29.2226 54.5778C29.3286 54.8873 29.4448 55.1962 29.5735 55.5009C29.8309 56.1102 30.1357 56.7079 30.4766 57.2944C30.8175 57.8808 31.1963 58.4541 31.6107 59.0132C32.0251 59.5722 32.4723 60.117 32.9503 60.644C33.4283 61.1711 33.938 61.6833 34.4697 62.1738C35.0012 62.6642 35.555 63.1355 36.1302 63.5848C36.7055 64.0341 37.3017 64.4604 37.9106 64.864C38.5196 65.2676 39.1396 65.6449 39.7723 65.9981C40.4051 66.3514 41.0475 66.68 41.6939 66.9784C42.3404 67.2767 42.9909 67.5483 43.6413 67.7872C44.2916 68.0261 44.9444 68.2322 45.5886 68.407C46.2328 68.5819 46.8693 68.7228 47.4973 68.829C48.1255 68.9353 48.7441 69.007 49.3462 69.04C49.9483 69.0731 50.5348 69.0672 51.101 69.0224C51.787 68.9682 52.4692 68.8796 53.1424 68.7543C53.8156 68.629 54.4811 68.4683 55.1367 68.2752C55.7923 68.082 56.4378 67.8559 57.0712 67.5982C57.7045 67.3405 58.3267 67.0513 58.9329 66.7322C59.1616 66.6119 59.3763 66.4654 59.6006 66.3366C64.8787 62.008 68.2244 55.1008 67.3042 47.1835C66.0619 36.4952 52.479 28.188 40.0957 32.5233C39.1145 32.7355 38.0359 33.1651 36.92 33.7761L36.9201 33.7768Z" fill="#383838"/>
<path d="M59.0928 34.2536C67.0924 33.5949 69.9647 37.1699 70.5753 42.4241C72.5 48.45 64.6266 54.0047 59.2312 54.431C54.7786 54.7828 49.6856 49.813 50.1006 44.6976C50.5156 39.5823 55 34.85 59.0928 34.2536Z" fill="#383838"/>
<path d="M60.7611 34.0036C60.2637 34.0122 59.7482 34.0366 59.2084 34.077C57.3059 34.2193 53.9034 36.4427 51.6666 39.3742C51.97 39.0378 52.2667 38.694 52.5909 38.3864C53.0933 37.9094 53.6166 37.4675 54.139 37.075C54.6613 36.6825 55.1817 36.3377 55.6871 36.0483C56.1925 35.7589 56.6818 35.5257 57.1335 35.3581C57.3594 35.2743 57.5749 35.2095 57.7805 35.1597C57.9861 35.1099 58.1821 35.074 58.3628 35.0605C58.9026 35.0201 59.4227 35 59.9201 34.9915C60.4174 34.9829 60.8916 34.9867 61.348 35.0087C61.8044 35.0308 62.2435 35.0694 62.6604 35.1209C63.0773 35.1723 63.4737 35.2397 63.8527 35.3193C64.2316 35.399 64.5915 35.4888 64.934 35.5954C65.2765 35.702 65.6015 35.8254 65.9091 35.9577C66.2166 36.0901 66.5037 36.2323 66.7779 36.3891C67.052 36.5459 67.312 36.7137 67.5542 36.8938C67.7964 37.0739 68.0218 37.2654 68.2335 37.4675C68.4453 37.6697 68.6422 37.883 68.825 38.106C69.0079 38.3289 69.1779 38.5622 69.3334 38.8048C69.4889 39.0473 69.6289 39.2987 69.7585 39.5597C69.8881 39.8207 70.0091 40.0925 70.1143 40.3707C70.2196 40.6488 70.3092 40.935 70.3916 41.2291C70.5564 41.8172 70.6789 42.4352 70.7613 43.0796C70.8107 43.4656 70.8276 43.8498 70.8168 44.2271C70.8058 44.6044 70.7677 44.9775 70.7012 45.3443C70.6347 45.7112 70.5415 46.0725 70.424 46.4271C70.3064 46.7816 70.1629 47.1263 69.9988 47.4667C69.8348 47.807 69.6502 48.1431 69.4443 48.4675C69.2631 48.7528 69.0631 49.0284 68.8528 49.3C70.7741 47.2958 71.9514 44.7897 71.607 42.096C70.9888 37.2623 68.2215 33.8752 60.7611 34.0035L60.7611 34.0036Z" fill="#383838"/>
<path d="M60.4569 78.2L58.3827 70.244L56.8025 65.3479L51.6666 58.412L57 57.8L59.5679 64.9399L62.7283 70.5498L64.111 72.7939L65 75.8538" fill="#383838"/>
<path d="M50 57.8L56.5443 65.4919L58.2365 70.3355L60.4514 78.2L61.6667 77.6195L59.6086 70.3354L57.9229 65.4919L51.5041 58.3802L50 57.8Z" fill="#383838"/>
<path d="M56.9808 57.8L56.6666 58.1377L58.9595 65.483L62.1267 71.1937L63.5174 73.4743L64.3812 76.5L65 76.1788L64.1117 73.0633L62.721 70.7763L59.5538 65.0656L56.9808 57.8Z" fill="#383838"/>
<path d="M60.0013 78.2C60.0013 78.2 63.0475 77.0515 64.103 76.9851C65.1587 76.9187 66.6667 76.8238 66.6667 76.8238C66.6667 76.8238 65.1171 72.2567 62.4891 73.2382C59.8611 74.2198 60.0013 78.2 60.0013 78.2V78.2Z" fill="#383838" stroke="#383838" stroke-width="0.52614"/>
<path d="M44.6443 67.42C44.6443 67.42 38.5792 74.2523 38.7749 76.2618C38.8886 77.43 40.7874 79.481 42.3576 80.9936C43.4884 82.083 41.751 84.8115 41.751 84.8115" stroke="#383838" stroke-width="2.6307"/>
<path d="M37.2077 63.2C37.2077 63.2 32.1208 64.6066 31.3383 67.0181C30.9028 68.3598 31.695 72.1627 31.0719 74.5792C30.5752 76.5059 28.5992 77.2666 28.5992 77.2666" stroke="#383838" stroke-width="2.6307"/>
<path d="M33.0991 56.5686C30.7513 57.1714 26.4471 57.3724 25.2731 59.5829C24.5957 60.8585 23.8603 64.2664 22.3063 66.0794C21.1674 67.4082 19.0123 67.42 19.0123 67.42" stroke="#383838" stroke-width="2.6307"/>
<path d="M43.7814 37.0458C49.8686 34.9145 56.5209 38.8254 57.1316 44.0795C57.863 50.3724 53.1197 55.376 47.7243 55.8024C43.2717 56.1541 36.2418 51.4684 36.6569 46.3531C37.5 39.95 41.1529 37.6143 43.7814 37.0458Z" fill="#383838"/>
<path d="M47.0997 35.7003C46.0099 35.7061 44.8966 35.8917 43.8031 36.2956C42.1031 36.6834 39.7932 38.5019 38.3334 41.2178C38.5041 40.9756 38.6639 40.7152 38.8459 40.4937C39.1814 40.0853 39.5324 39.7166 39.8914 39.3831C40.2505 39.0496 40.6187 38.7515 40.9821 38.499C41.3455 38.2466 41.7077 38.0378 42.0564 37.8727C42.405 37.7075 42.7379 37.5891 43.0527 37.5173C43.4172 37.3826 43.7844 37.2722 44.1516 37.1841C44.5187 37.096 44.8878 37.028 45.2545 36.9842C45.6213 36.9403 45.986 36.9195 46.3493 36.9175C46.7125 36.9156 47.075 36.9332 47.4317 36.9708C47.7884 37.0085 48.1385 37.0647 48.4855 37.1397C48.8325 37.2146 49.1763 37.3096 49.5105 37.4195C49.8448 37.5294 50.1721 37.6546 50.4904 37.7971C50.8088 37.9396 51.1177 38.0996 51.4171 38.2725C51.7165 38.4453 52.0049 38.6314 52.2823 38.8322C52.5596 39.0331 52.8254 39.2454 53.0777 39.4719C53.33 39.6984 53.5712 39.9373 53.7952 40.1872C54.0192 40.437 54.2257 40.6981 54.4185 40.969C54.6112 41.2399 54.7891 41.5235 54.9474 41.8131C55.1057 42.1027 55.2448 42.4 55.3656 42.706C55.4864 43.012 55.5888 43.3277 55.669 43.6478C55.7493 43.9679 55.8088 44.2933 55.8453 44.6251C55.8891 45.0226 55.9111 45.4159 55.915 45.8024C55.919 46.1889 55.9036 46.5658 55.8699 46.9396C55.8363 47.3135 55.7831 47.6817 55.7141 48.0414C55.6451 48.401 55.562 48.7549 55.4599 49.0987C55.3578 49.4424 55.2402 49.7763 55.1073 50.1026C54.9818 50.4107 54.84 50.709 54.6891 51C56.1267 48.9525 56.9168 46.3183 56.5956 43.4034C56.1203 39.0892 51.8221 35.675 47.0996 35.7002L47.0997 35.7003Z" fill="#383838"/>
<path d="M64.2148 38.0305C62.8101 38.0305 62.1617 39.8017 62.1617 41.2444C62.1617 42.6872 62.7123 44.0106 64.117 44.0106C65.5218 44.0106 66.8549 42.5364 66.8549 41.0936C66.8549 39.6508 65.6195 38.0303 64.2148 38.0303V38.0305Z" fill="#383838"/>
<path d="M51.3549 43.9079C49.9502 43.9079 48.4214 45.4782 48.4214 46.921C48.4214 48.3638 49.3632 49.838 50.7679 49.838C52.1726 49.838 53.5058 48.3638 53.5058 46.921C53.5058 45.4782 52.7596 43.9079 51.3549 43.9079Z" fill="#383838"/>
<path d="M59.9999 79.9C59.9999 79.9 58.8496 76.5797 58.2277 73.9295C58.0315 73.1937 57.8707 72.5141 57.7906 71.9727C57.716 71.4689 57.574 70.3179 57.196 69.1562C57.1463 69.0034 57.089 68.8477 57.0249 68.6884C56.7957 68.1193 56.486 67.5003 56.1175 66.8156C55.7489 66.1308 55.326 65.3813 54.8162 64.571C54.677 64.3481 54.5364 64.1157 54.3948 63.8728C53.0751 61.6079 52.0779 59.9227 51.373 58.727C50.9182 57.9554 50.5845 57.3885 50.3596 57.0049C50.2379 56.7974 50.1481 56.6437 50.0879 56.5404C50.0566 56.4866 50.0333 56.4466 50.0177 56.4197C50.0098 56.406 50.0038 56.3958 50 56.389V56.389V56.389C50.2123 56.2028 50.321 56.1074 50.329 56.1004V56.1004V56.1C50.329 56.1 50.3288 56.1001 50.329 56.1004V56.1004C50.3211 56.1074 50.2117 56.2033 50.0021 56.3872C50.0021 56.3872 50.0021 56.3872 50.0021 56.3872C50.0075 56.393 50.0154 56.4015 50.0258 56.413C50.0465 56.4357 50.0773 56.4696 50.1183 56.5154C50.1972 56.6034 50.3139 56.7351 50.4696 56.915C50.7575 57.2477 51.1786 57.7445 51.7385 58.4332C52.6065 59.501 53.8098 61.0284 55.3541 63.1326C55.5196 63.3582 55.6735 63.5818 55.8173 63.8027C56.1032 64.2451 56.3289 64.6898 56.5136 65.1205C56.6983 65.5511 56.8421 65.9679 56.9632 66.3633C57.2053 67.1541 57.3585 67.858 57.5436 68.453C57.5973 68.6253 57.6533 68.789 57.7139 68.9437C57.9409 69.523 58.2287 70.045 58.4805 70.4855C58.7322 70.926 58.948 71.2839 59.0286 71.5234C59.2019 72.0388 59.3582 72.7422 59.4878 73.521C59.8585 76.25 60 79.8999 60 79.8999L59.9999 79.9Z" fill="#383838"/>
<path d="M56.6667 56.1C56.6667 56.1 57.8316 58.3589 58.6629 60.4275C59.0078 61.2567 59.3034 62.05 59.4473 62.6545C59.5177 62.9504 59.6349 63.5076 59.8366 64.1453C59.9295 64.4372 60.0373 64.7455 60.1663 65.0509C60.3992 65.6029 60.7627 66.1904 61.2351 66.8214C61.7748 67.551 62.3961 68.4147 63.0141 69.5265C65.6675 74.3002 66.6643 76.269 66.6666 76.2734C66.6666 76.2734 66.6666 76.2734 66.6666 76.2734C66.4336 76.4244 66.317 76.5 66.317 76.5C66.317 76.5 66.4336 76.4244 66.6666 76.2734L66.6666 76.2734C66.6634 76.2696 65.217 74.5877 62.0386 70.1584C61.2998 69.1288 60.8443 68.1561 60.4798 67.3108C60.1352 66.5181 59.9434 65.8271 59.6705 65.285C59.5207 64.9874 59.3494 64.7121 59.1772 64.4638C58.7887 63.9033 58.3991 63.4654 58.2722 63.1922C58.015 62.6385 57.7642 61.8074 57.5449 60.9096C57.0346 58.7069 56.6666 56.1001 56.6666 56.1001L56.6667 56.1Z" fill="#383838"/>
<path d="M52.7381 44.3921C52.2772 44.3921 52.0227 45.3832 52.0227 45.8566C52.0227 46.33 52.3317 46.8137 52.7926 46.8137C53.2535 46.8137 53.6909 46.33 53.6909 45.8566C53.6909 45.3832 53.199 44.3921 52.7381 44.3921Z" fill="#383838"/>
<path d="M66.2007 39.2107C65.6669 39.2107 65.5403 40.0751 65.5403 40.6234C65.5403 41.1717 65.989 41.6062 66.5228 41.6062C67.0566 41.6062 67.204 40.923 67.204 40.3748C67.204 39.8265 66.7345 39.2107 66.2007 39.2107V39.2107Z" fill="#383838"/>
</g>
<defs>
<clipPath id="clip0">
<rect width="80" height="85" fill="white"/>
</clipPath>
</defs>
</svg>
